<?xml version="1.0" encoding="utf-8"?>
<svg viewBox="161.02 -64.408 1000 1000" xmlns="http://www.w3.org/2000/svg" xmlns:bx="https://boxy-svg.com">
  <path d="M 1030.528 434.754 C 1030.528 639.29 864.718 805.1 660.182 805.1 C 455.646 805.1 289.836 639.29 289.836 434.754 C 289.836 389.158 298.076 345.486 313.148 305.146 L 289.836 257.632 L 257.632 96.612 L 401.251 169.969 C 468.025 104.662 559.403 64.408 660.182 64.408 C 763.464 64.408 856.872 106.687 924.043 174.882 L 1077.28 96.612 L 1045.076 257.632 L 1013.225 322.548 C 1024.464 357.941 1030.528 395.64 1030.528 434.754 Z M 660.182 128.816 C 491.217 128.816 354.244 265.789 354.244 434.754 C 354.244 603.719 491.217 740.692 660.182 740.692 C 829.147 740.692 966.12 603.719 966.12 434.754 C 966.12 265.789 829.147 128.816 660.182 128.816 Z" style="stroke-width: 0px; stroke: rgb(51, 51, 51); fill: rgb(230, 230, 230);"/>
  <path d="M 966.12 434.754 C 966.12 603.719 829.147 740.692 660.182 740.692 C 491.217 740.692 354.244 603.719 354.244 434.754 C 354.244 422.629 354.949 410.669 356.321 398.912 L 337.661 353.975 L 304.999 161.02 L 428.153 235.345 C 484.26 170.12 567.397 128.816 660.182 128.816 C 749.918 128.816 830.63 167.451 886.593 228.993 L 1030.528 142.127 L 997.866 335.082 L 965.38 413.314 C 965.871 420.397 966.12 427.546 966.12 434.754 Z" style="stroke: rgb(0, 0, 0); stroke-width: 0px; fill: rgb(51, 51, 51);"/>
  <ellipse style="stroke: rgb(0, 0, 0); stroke-width: 0px; fill: rgb(230, 230, 230);" cx="547.468" cy="386.448" rx="32.204" ry="32.204"/>
  <ellipse style="stroke: rgb(0, 0, 0); stroke-width: 0px; fill: rgb(230, 230, 230);" cx="772.896" cy="386.448" rx="32.204" ry="32.204"/>
  <path d="M 662.457 483.124 L 710.762 547.532 L 614.151 547.532 L 662.457 483.124 Z" style="stroke: rgb(0, 0, 0); stroke-width: 0px; fill: rgb(230, 230, 230); transform-origin: 662.457px 515.328px;" transform="matrix(-1, 0, 0, -1, 0, 0)" bx:shape="triangle 614.151 483.124 96.611 64.408 0.5 0 1@8de9bafb"/>
  <polyline style="stroke-width: 20px; fill: rgba(216, 216, 216, 0); stroke-linecap: round; stroke: rgb(230, 230, 230); transform-origin: 692.386px 595.774px;" points="611.876 579.672 708.488 579.672"/>
  <line style="stroke-linecap: round; stroke-width: 20px; fill: rgba(216, 216, 216, 0); stroke: rgb(230, 230, 230);" x1="515.264" y1="515.264" x2="289.836" y2="483.06"/>
  <line style="stroke-linecap: round; stroke-width: 20px; fill: rgba(216, 216, 216, 0); stroke: rgb(230, 230, 230);" x1="515.264" y1="515.264" x2="257.632" y2="547.468"/>
  <line style="stroke-linecap: round; stroke-width: 20px; fill: rgba(216, 216, 216, 0); stroke: rgb(230, 230, 230);" x1="515.264" y1="515.264" x2="322.04" y2="611.876"/>
  <line style="stroke-linecap: round; stroke-width: 20px; fill: rgba(216, 216, 216, 0); stroke: rgb(230, 230, 230); transform-origin: 917.814px 499.162px;" x1="1030.528" y1="483.06" x2="805.1" y2="515.264" transform="matrix(-1, 0, 0, -1, 0, -0.000061035156)"/>
  <line style="stroke-linecap: round; stroke-width: 20px; fill: rgba(216, 216, 216, 0); stroke: rgb(230, 230, 230); transform-origin: 933.916px 531.366px;" x1="1062.732" y1="547.468" x2="805.1" y2="515.264" transform="matrix(-1, 0, 0, -1, 0, 0)"/>
  <line style="stroke-linecap: round; stroke-width: 20px; fill: rgba(216, 216, 216, 0); stroke: rgb(230, 230, 230); transform-origin: 901.712px 563.57px;" x1="998.324" y1="611.876" x2="805.1" y2="515.264" transform="matrix(-1, 0, 0, -1, 0, -0.000122070312)"/>
</svg>