<?xml version="1.0" encoding="UTF-8"?>
<svg id="CATZI" xmlns="http://www.w3.org/2000/svg" viewBox="0 0 330 472">
  <defs>
    <style>
      .cls-1 {
        fill: #2e2e2e;
      }

      .cls-1, .cls-2, .cls-3, .cls-4, .cls-5, .cls-6, .cls-7, .cls-8, .cls-9, .cls-10, .cls-11, .cls-12, .cls-13, .cls-14, .cls-15, .cls-16, .cls-17, .cls-18, .cls-19, .cls-20, .cls-21, .cls-22, .cls-23, .cls-24 {
        stroke-width: 0px;
      }

      .cls-2 {
        fill: #4d4d4d;
      }

      .cls-25 {
        fill: none;
        stroke: #000;
        stroke-miterlimit: 10;
        stroke-width: 11px;
      }

      .cls-3 {
        fill: #6e6e6e;
      }

      .cls-4 {
        fill: #262626;
      }

      .cls-5 {
        fill: #222;
      }

      .cls-6 {
        fill: #454545;
      }

      .cls-7 {
        fill: #363636;
      }

      .cls-8 {
        fill: #505050;
      }

      .cls-10, .cls-26 {
        opacity: .8;
      }

      .cls-10, .cls-20 {
        fill: #828282;
      }

      .cls-11 {
        fill-rule: evenodd;
      }

      .cls-11, .cls-15 {
        fill: #202020;
      }

      .cls-12 {
        fill: #393939;
      }

      .cls-13 {
        fill: #343434;
      }

      .cls-14 {
        fill: #fff;
      }

      .cls-16 {
        fill: #595959;
      }

      .cls-17 {
        fill: #272727;
      }

      .cls-18 {
        fill: #404040;
      }

      .cls-19 {
        fill: #2a2a2a;
      }

      .cls-21 {
        fill: #292929;
      }

      .cls-22 {
        fill: #959595;
      }

      .cls-23 {
        fill: #cecece;
      }

      .cls-24 {
        fill: #303030;
      }
    </style>
  </defs>
  <g id="FRAME">
    <rect class="cls-25" x="15.41" y="15.37" width="299.17" height="441.27" rx="28.84" ry="28.84"/>
  </g>
  <g id="NBG">
    <path class="cls-15" d="M99.86,351.79c.05-.4-.77-.85.56-.96,4.17-.1,7.25,1.59,11.16,1.91l.4-.59c2.95.81,5.91,1.96,9.12,3.23,3.03.85,6.16,1.82,9.43,2.79,1.63.48,3.29.97,4.99,1.42,1.71.42,3.41.85,5.12,1.27-.11-.28-.14-.51.56-.41.71.15,1.48.35,2.31.57.83.21,1.71.42,2.62.65,1.83.47,3.82.98,5.85,1.49.61.1,1.23.15,1.83.23.49-.05.66-.26.76-.38,1.85.36,3.48.72,5,1.06,20.37,1.99,41.19.78,62.65-4.18,2.23-.69,4.47-1.38,6.68-2.06,2.19-.74,4.35-1.46,6.49-2.08,1.6-.39,3.29-.9,5.04-1.36,1.76-.46,3.56-.93,5.37-1.4,1.79-.52,3.57-1.05,5.3-1.55.86-.26,1.71-.49,2.53-.76.81-.29,1.6-.56,2.36-.83-.86-.93,2.29-2.96,5.08-5,2.77-2.11,5.22-4.1,3.35-4.57,3.85-1.52,9.51-4.27,9.52-4.99,0-1.09.48-2.5,2.15-4.38,1.68-1.88,4.5-4.29,9.56-7.26,2.02-1.08,4.76-2.13,7.23-2.96,2.45-.85,4.61-1.47,5.34-1.94.53-.34.42-.48.01-.52-.42-.04-1.22.07-2.01.16-1.58.19-3.14.44-2.01-.33-8.43,2.98-15.94,6.77-23.04,10.22-3.56,1.71-6.97,3.42-10.44,4.84-1.74.73-3.44,1.53-5.19,2.21l-5.28,2.01c-14.16,5.12-29.05,8.59-44.5,9.8-.65.12-1.54.26-2.64.42-1.1.1-2.41.21-3.91.34-1.49.1-3.17.29-5.01.33-1.84.04-3.83.09-5.94.14-8.47.02-18.98-.7-29.55-2.62-2.66-.4-5.28-1.05-7.91-1.62-2.64-.53-5.2-1.31-7.74-1.99-5.04-1.34-10.05-3.14-15.03-4.65-2.48-.76-4.94-1.47-7.33-2.07-2.4-.6-4.73-1.08-6.85-1.45-4.26-.75-7.78-1.11-10.35-1.38-.63-.04-1.25-.07-1.87-.11-5.59-.43-11.66-.46-17.35-.3-5.67.17-11.07.47-15.53.93-4.09.57-8.24,1.25-12.38,1.92,1.93.37,3.71.74,5.26,1.1-4.22-.02-8.43-.05-10.05.38-8.97,1.04-3.88,2.16-.42,3.71,2.49.67-.86,1.75,3.03,2.42-2.8-.02-4.21-.02-7.02-.04-.32.65,8.65-.39,6.7.69-2.7-.23-5.73.19-8.53.17.98.88,9.72.27,9.3,1.15-1.51.21-7.89-1.14-8.43-.05-.11.22,2.7.23,4.11.24-8.64.39-13.4,1.45-5.5,2.59-2.74-.02-6.61-.45-9.51-.29,0,0,.02.01.02.02,1.45.03,3.94.24,5.27.24-1.64,0-3.29-.02-4.93-.03.26.15.55.3.86.45,1.23.13,2.46.23,3.74.23-1.09,0-2.18-.01-3.28-.02.82.35,1.76.69,2.8,1,3.89.68,7.63,1.68,9.73,1.7,8.5.21,17.02.37,25.54.49,8.57.14,16.98.05,24.83.57Z"/>
    <g class="cls-26">
      <path class="cls-20" d="M177.56,362.04c2.3.75,4.38,1.41,6.26,2.2,1.87.73,3.52,1.52,4.94,2.39l4.05-.41,4.06-.57c-5.58,1.55-11.25,2.65-16.96,3.29-7.67,1.05-15.95,1.39-24.34.59-4.2-.36-8.41-1.08-12.57-2.05-2.08-.46-4.13-1.08-6.18-1.67-2.02-.68-4.04-1.34-6.01-2.16-3.94-1.58-7.71-3.42-11.21-5.54-3.5-2.09-6.78-4.38-9.73-6.86-5.96-4.87-10.63-10.43-14.02-15.7,2.17,3.01,4.88,6.03,7.87,8.92,2.99,2.9,6.37,5.53,9.81,7.88,1.15.77,2.28,1.54,3.46,2.22,1.16.7,2.31,1.39,3.47,1.99,4.59,2.47,8.99,4.31,12.55,5.55l-2.2-.57c5.48,1.52,11.02,2.43,16.54,2.82,5.44.88,10.95,1.25,16.42,1.15-5.48.1-10.98-.26-16.42-1.15,10.27.92,20.49.02,30.19-2.33"/>
      <path class="cls-20" d="M151.06,244.89l.68-.16c-1.18.56-2.34,1.13-3.55,1.66-3.64,1.24-7.41,2.36-11.31,3.26-.96.25-1.95.44-2.94.64l-1.48.3c-.49.1-1.05.18-1.57.26-1.06.18-2.12.33-3.19.44-1.06.14-2.14.22-3.21.29-4.3.29-8.67.18-13.15-.49-4.47-.68-9.07-1.93-13.58-4.14-5.4-2.74-10.95-7.39-14.42-13.29-1.77-2.93-3.12-6.16-3.97-9.55-.84-3.36-1.17-6.65-1.13-9.91.1-6.5,1.64-12.7,4.42-18.45l1.12-2.14c.38-.68.78-1.33,1.17-1.99.81-1.29,1.67-2.55,2.58-3.75,1.81-2.4,3.79-4.59,5.86-6.58,3.31-3.19,6.83-5.86,10.42-8.2-3.41,2.58-6.78,5.48-9.9,8.89-3.13,3.37-6.01,7.28-8.29,11.65-.5.8-.97,1.75-1.44,2.61-2.42,4.86-3.9,9.98-4.34,15.29-.24,2.65-.18,5.36.16,8.06.15,1.35.44,2.7.74,4.08.37,1.37.75,2.73,1.27,4.04,1,2.62,2.28,5.12,3.92,7.34l1.22,1.66c.44.53.9,1.03,1.36,1.54.46.5.91,1.02,1.4,1.49l1.51,1.36c4.1,3.54,8.62,5.79,12.99,7.23,4.39,1.44,8.67,2.1,12.81,2.34,4.14.23,8.16.04,12.12-.47l2.95-.45,2.76-.53c.93-.17,1.82-.4,2.73-.6.91-.2,1.82-.41,2.71-.65,3.6-.9,7.11-1.96,10.58-3.1"/>
      <path class="cls-2" d="M99.17,170.82c2.09-1.58,4.2-3.03,6.33-4.38,1.06-.68,2.13-1.32,3.19-1.94,1.06-.64,2.15-1.24,3.24-1.84,4.37-2.39,8.94-4.54,13.67-6.4,9.47-3.7,19.56-6.27,29.9-7.53l.09.9c-11.39,1.26-23.15,4.51-34.48,9.17-3.12,1.27-6.22,2.66-9.27,4.12.75-.31,1.49-.62,2.25-.9-2.53,1.24-5,2.58-7.46,4-2.47,1.44-4.96,3.03-7.45,4.8"/>
      <path class="cls-2" d="M139.18,153.89c5.78-1.57,11.69-2.77,17.69-3.47h2.41c-6.81.6-13.54,1.76-20.11,3.47"/>
      <path class="cls-2" d="M149.45,226.76l3.8-1.03c-1.57.49-3.14.99-4.7,1.44l.89-.41"/>
      <path class="cls-2" d="M157.2,184.56c-2.03.06-4.06.21-6.09.42,2.03-.21,4.06-.36,6.09-.42"/>
      <polyline class="cls-2" points="151.12 184.98 150.26 185.15 151.12 184.98"/>
      <polyline class="cls-2" points="237.15 148.92 235.6 149.69 234.01 150.36 235.6 149.69 237.15 148.92"/>
      <polyline class="cls-2" points="185.07 182.41 183.07 182.09 185.07 182.41"/>
      <path class="cls-2" d="M210.13,279.18c-2.75-.62-5.55-1.5-8.33-2.6,2.77,1.09,5.57,1.98,8.33,2.6"/>
      <path class="cls-2" d="M153.26,225.73c2.57-.66,5.14-1.35,7.74-2.08-2.6.73-5.17,1.42-7.74,2.08"/>
      <path class="cls-2" d="M228.2,151.16c-1.59.51-3.3.88-5.03,1.22.75-.14,1.47-.32,2.2-.49.7-.2,1.44-.36,2.12-.59l.71-.15"/>
      <path class="cls-2" d="M242.12,145.21c-1.5,1.39-3.19,2.64-4.97,3.71,1.16-.75,2.3-1.55,3.34-2.44l.84-.61.79-.66"/>
      <path class="cls-2" d="M192.86,153.33c3.59.04,7.09.04,10.37-.1l1.79.11-1.79-.11,1.79.11v.1c-3.86.1-7.9.03-12.16-.12"/>
      <path class="cls-2" d="M236.45,147.95c-1.28.68-2.55,1.35-3.88,1.82l-.49.2-.55.18-1.08.37c-.76.2-1.47.46-2.25.63-1.59.51-3.3.88-5.03,1.22.75-.14,1.47-.32,2.2-.49.7-.2,1.44-.36,2.12-.59-4.58,1.14-9.85,1.67-15.77,1.68-5.93.02-12.4-.52-19.76-1.21l-2.01.38c6.65.51,12.81.92,18.56.83-1.72.13-3.5.2-5.29.25l1.79.11c1.18.02,2.36.05,3.51.04-1.15.05-2.33.05-3.51.06,5.94.33,11.57.24,16.71-.52-2.08.2-4.23.29-6.43.3,2.75-.07,5.4-.27,7.93-.65l-1.5.35c2.33-.23,4.57-.59,6.72-1.11.77-.23,1.47-.55,2.21-.81l1.06-.46c.37-.15.7-.3,1.01-.46,1.29-.58,2.51-1.36,3.72-2.13M223.22,152.57c.51-.11.97-.26,1.46-.39-.49.12-.96.28-1.46.39"/>
      <path class="cls-21" d="M227.5,151.31c-.68.23-1.42.38-2.12.59-.73.16-1.45.34-2.2.49.75-.14,1.47-.32,2.2-.49.7-.2,1.44-.36,2.12-.59"/>
      <polyline class="cls-21" points="205.02 153.34 203.23 153.23 205.02 153.34"/>
      <path class="cls-2" d="M247.08,137.18c-.19.45-.33.9-.59,1.35-.23.45-.42.9-.71,1.34-.69,1.25-1.62,2.44-2.6,3.61-1.58,1.68-3.44,3.21-5.45,4.5l-.75.48-.78.43c-.51.31-1.04.57-1.58.82-.52.28-1.07.49-1.61.71-.51.23-1.13.44-1.72.65-.45.16-.93.27-1.41.39-.47.12-.94.26-1.43.35.77-.23,1.47-.55,2.21-.81l1.06-.46c.37-.15.7-.3,1.01-.46,1.29-.58,2.51-1.36,3.72-2.13,4.67-2.61,8.66-6.55,10.63-10.77"/>
      <path class="cls-2" d="M208.53,153.38c-1.15.05-2.33.05-3.51.06v-.1c1.18.02,2.36.05,3.51.04"/>
      <path class="cls-21" d="M208.53,153.38c-1.15.05-2.33.05-3.51.06,1.18-.01,2.36-.01,3.51-.06"/>
      <path class="cls-2" d="M247.48,136.11c-.16.72-.47,1.43-.73,2.15-.34.54-.58,1.08-.97,1.61.29-.44.48-.89.71-1.34.26-.44.4-.9.59-1.35.18-.36.28-.72.4-1.08"/>
      <path class="cls-2" d="M246.99,137.77c-.08.16-.14.33-.24.49.11-.16.16-.33.24-.49"/>
      <path class="cls-2" d="M246.31,139.22c-.96,2.08-2.44,4.12-4.19,5.99.93-1,1.69-2.08,2.43-3.15l.95-1.41c.25-.48.58-.95.81-1.43"/>
      <polyline class="cls-21" points="205.02 153.34 203.23 153.23 205.02 153.34"/>
      <path class="cls-2" d="M246.99,137.77c-.16.49-.47.96-.68,1.45.21-.49.52-.96.68-1.45"/>
      <path class="cls-2" d="M246.75,138.26l-.43.96c-.23.48-.56.95-.81,1.43l-.95,1.41c-.48.47-.88.97-1.38,1.42.98-1.16,1.92-2.36,2.6-3.61-.69,1.25-1.62,2.44-2.6,3.61.98-1.16,1.92-2.36,2.6-3.61.39-.52.63-1.07.97-1.61"/>
      <path class="cls-21" d="M246.99,137.77c-.16.49-.47.96-.68,1.45l.43-.96c.11-.16.16-.33.24-.49"/>
      <path class="cls-21" d="M246.31,139.22c-.23.48-.56.95-.81,1.43l-.95,1.41.95-1.41c.25-.48.58-.95.81-1.43"/>
      <path class="cls-21" d="M245.78,139.87c-.69,1.25-1.62,2.44-2.6,3.61.98-1.16,1.92-2.36,2.6-3.61"/>
      <path class="cls-2" d="M244.55,142.06c-.74,1.07-1.5,2.15-2.43,3.15l-.79.66-.84.61c1.54-1.36,2.92-2.85,4.06-4.42"/>
      <polyline class="cls-21" points="242.12 145.21 241.33 145.86 240.49 146.48 241.33 145.86 242.12 145.21"/>
      <path class="cls-21" d="M244.55,142.06c-.74,1.07-1.5,2.15-2.43,3.15.93-1,1.69-2.08,2.43-3.15"/>
      <path class="cls-2" d="M244.55,142.06c-1.14,1.57-2.52,3.06-4.06,4.42-.95.65-1.95,1.25-2.98,1.78,1.93-1.23,3.71-2.68,5.25-4.27l.41-.52c.5-.45.9-.95,1.38-1.42"/>
      <path class="cls-21" d="M244.55,142.06c-1.14,1.57-2.52,3.06-4.06,4.42,1.54-1.36,2.92-2.85,4.06-4.42"/>
      <path class="cls-21" d="M224.69,152.19c-.49.12-.96.28-1.46.39.51-.11.97-.26,1.46-.39"/>
      <path class="cls-2" d="M223.22,152.57l-1.5.35c-2.08.2-4.23.29-6.43.3,2.75-.07,5.4-.27,7.93-.65"/>
      <polyline class="cls-21" points="223.22 152.57 221.73 152.92 223.22 152.57"/>
      <path class="cls-21" d="M221.73,152.92c-2.08.2-4.23.29-6.43.3,2.2-.01,4.35-.11,6.43-.3"/>
      <path class="cls-2" d="M231.28,151.07c-1.34.52-2.75.95-4.19,1.33.47-.18.9-.4,1.35-.59.49-.09.96-.22,1.43-.35.47-.12.95-.24,1.41-.39"/>
      <path class="cls-2" d="M243.18,143.47l-.41.52c-1.56,1.57-3.37,2.99-5.31,4.19-.96.6-1.97,1.14-2.99,1.61-1.02.48-2.01.87-3.18,1.28.59-.22,1.21-.42,1.72-.65.54-.22,1.09-.44,1.61-.71.54-.25,1.07-.51,1.58-.82l.78-.43.75-.48c2.01-1.28,3.87-2.81,5.45-4.5"/>
      <polyline class="cls-21" points="243.18 143.47 242.76 143.99 243.18 143.47 242.76 143.99 243.18 143.47"/>
      <polyline class="cls-5" points="243.18 143.47 242.76 143.99 243.18 143.47"/>
      <path class="cls-2" d="M176.48,175.53c-4.93-.54-9.8-.95-14.63-1.01,5.48-.02,11.01.42,16.62,1h-1.99"/>
      <path class="cls-2" d="M169.61,175.75c-4.53-.57-9.01-.92-13.54-.92,5.79-.23,11.57.16,17.44.8-1.31.02-2.61.07-3.9.13"/>
      <path class="cls-2" d="M159.35,179.22c-12.83,1-24.38,4.65-33.88,8.4,5.33-2.48,10.87-4.51,16.56-5.95l-.89.25c5.98-1.52,12.1-2.41,18.21-2.71"/>
      <path class="cls-2" d="M159.35,179.22c-6.11.3-12.22,1.18-18.21,2.71l.89-.25c5.7-1.37,11.51-2.19,17.32-2.45"/>
      <path class="cls-21" d="M159.35,179.22c-6.11.3-12.22,1.18-18.21,2.71,5.98-1.52,12.1-2.41,18.21-2.71"/>
      <path class="cls-2" d="M165.75,175.87c-1.6-.13-3.2-.23-4.8-.29,2.86-.06,5.75.02,8.66.17-1.3.02-2.58.07-3.87.12"/>
      <path class="cls-2" d="M207.16,176.92c-2.12-.03-4.22-.11-6.31-.23,2.09.12,4.19.2,6.31.23"/>
      <path class="cls-22" d="M172.97,101.42c-.44,1.69-.84,3.39-1.16,5.1-.35,2.42-.59,4.85-.72,7.27,1.24-5.56,3-10.96,5.37-16.35,1.18-2.7,2.52-5.38,4.02-8.08,1.51-2.7,3.23-5.39,5.32-7.97-.93.99-1.86,2.01-2.7,3.1,1.97-3.01,4.22-5.56,6.69-7.59,1.25-1,2.56-1.86,3.9-2.58,1.36-.69,2.76-1.22,4.17-1.6,2.84-.71,5.73-.74,8.53-.3,2.81.44,5.54,1.37,8.25,2.61-2.38-1.21-5.02-2.25-7.89-2.79-2.86-.53-5.96-.54-8.98.21-3.25.85-6.37,2.55-8.99,4.8-2.65,2.22-4.88,4.87-6.81,7.61-3.82,5.53-6.71,11.26-9,16.55"/>
      <path class="cls-2" d="M232.71,85.96c1,.91,2,1.83,2.97,2.77-.98-.94-1.97-1.86-2.97-2.77"/>
      <path class="cls-2" d="M185.79,81.4c1.29-1.58,2.71-3.06,4.29-4.36-1.57,1.3-2.99,2.78-4.29,4.36"/>
      <path class="cls-2" d="M228.16,81.89c1.56,1.31,3.06,2.68,4.55,4.06-1.48-1.38-2.99-2.75-4.55-4.06"/>
      <path class="cls-2" d="M205.04,174.24c-2.07-.07-4.14-.17-6.18-.31-2.05-.27-4.08-.57-6.1-.88,4.05.42,8.14.79,12.28.99v.2"/>
      <path class="cls-2" d="M205.04,174.44c-2.07-.14-4.14-.3-6.18-.51,2.05.14,4.12.24,6.18.31v.2"/>
      <path class="cls-2" d="M207.14,175.72c-1.75-.11-3.49-.24-5.22-.41-4.15-.45-8.22-1.03-12.25-1.64,5.06.54,10.17,1.03,15.37,1.27l2.09.78"/>
      <path class="cls-2" d="M207.14,175.82c-1.75-.14-3.49-.31-5.22-.51,1.73.17,3.47.3,5.22.41v.1"/>
      <path class="cls-2" d="M208.2,176.1c-4.93-.25-9.77-.78-14.51-1.4,2.72.24,5.46.46,8.23.61,1.73.2,3.47.37,5.22.51l1.06.28"/>
      <path class="cls-22" d="M205.04,174.04c-4.14-.2-8.23-.57-12.28-.99,2.02.31,4.05.61,6.1.88-11.29-.68-24.26-2.17-35.19-2.19,5.84-.41,11.75-.24,17.67.09,10.16.57,20.46,1.66,30.92,1.11-2.39.45-4.79.79-7.21,1.11"/>
      <path class="cls-12" d="M205.04,174.04c-4.14-.2-8.23-.57-12.28-.99,4.05.42,8.14.79,12.28.99"/>
      <path class="cls-2" d="M217.39,172.31c-7.75.56-15.96.19-23.54-.54-7.59-.72-14.6-1.65-20.15-2.44,1.12.02,2.2.06,3.28.11,10.45.48,19.25,1.74,28.22,2.15,4.48.18,9.01.22,13.75-.24,4.73-.45,9.7-1.34,14.84-3.18.54-.2,1.09-.38,1.63-.61-5.01,1.51-11.62,2.73-18.23,3.01-6.61.33-13.18-.11-18.2-.74,8.04.69,15.89.91,23.62.05,3.86-.44,7.68-1.18,11.42-2.28,3.72-1.11,7.41-2.56,10.83-4.57-8.25,5.51-17.92,8.16-27.49,9.28"/>
      <path class="cls-2" d="M192.95,169.66c-7.03-1.02-14.04-2.21-21.21-2.98,3.08.19,6.13.46,9.17.76l12.04,2.22"/>
      <path class="cls-2" d="M142.63,168.28l-3.08.68-1.04.19c1.36-.34,2.74-.59,4.11-.87"/>
      <path class="cls-2" d="M161.39,166.54c-1.74-.01-3.48.04-5.22.12-4.53.25-9.06.79-13.55,1.62l-3.08.68c7.21-1.57,14.54-2.38,21.84-2.42M156.17,166.66c-4.53.25-9.06.79-13.55,1.62,4.49-.83,9.02-1.37,13.55-1.62"/>
      <path class="cls-2" d="M180.9,167.44c-3.04-.3-6.09-.57-9.17-.76-5.13-.3-10.34-.39-15.56-.01-4.53.25-9.06.79-13.55,1.62-1.37.28-2.75.53-4.11.87l1.04-.19c-6.57,1.22-13.1,3.01-19.44,5.48,7.1-3.34,14.54-5.89,22.17-7.61,5.85-.78,12.48-1.32,19.2-1.15,6.71.14,13.37.89,19.43,1.77"/>
      <path class="cls-21" d="M180.9,167.44c-3.04-.3-6.09-.57-9.17-.76,3.08.19,6.13.46,9.17.76"/>
      <path class="cls-21" d="M142.63,168.28c-1.37.28-2.75.53-4.11.87,1.36-.34,2.74-.59,4.11-.87"/>
      <path class="cls-21" d="M156.17,166.66c-4.53.25-9.06.79-13.55,1.62,4.49-.83,9.02-1.37,13.55-1.62"/>
      <path class="cls-21" d="M156.17,166.66c-4.53.25-9.06.79-13.55,1.62,4.49-.83,9.02-1.37,13.55-1.62"/>
      <path class="cls-2" d="M135.91,167.82c-5.69,1.58-11.02,3.5-15.85,5.57-4.84,2.07-9.21,4.21-13.16,6.43,3.7-2.58,7.47-4.75,11.34-6.75,3.88-1.99,7.88-3.74,11.97-5.26-.96.55-1.9,1.14-2.84,1.7,2.84-.68,5.69-1.23,8.54-1.69"/>
      <path class="cls-2" d="M244.63,219.66c.7.63,1.34,1.35,1.99,2.05.64.71,1.31,1.38,1.9,2.13,1.19,1.5,2.39,2.97,3.41,4.6l-1.25-1.44c-.43-.46-.89-.9-1.33-1.34-.72-1.04-1.43-2.11-2.25-3.07-.81-.97-1.58-2.02-2.47-2.92"/>
      <path class="cls-18" d="M119.38,330.88c5.24,6.72,11.56,11.99,17.95,15.99,6.43,4.04,13.04,6.87,19.32,9.04-9.83-.66-19.52-3.1-28.27-7.46-2.84-1.46-5.59-3.1-8.14-4.95-2.58-1.8-4.95-3.84-7.14-5.93-4.34-4.23-7.89-8.84-10.34-13.4-.6-1.15-1.22-2.24-1.68-3.37-.5-1.11-.98-2.18-1.34-3.26-.83-2.13-1.36-4.13-1.64-5.85-.14-.87-.22-1.68-.21-2.34,0-.68.03-1.32.13-1.9.17-1.16.51-2.1.91-2.8.78-1.35,1.64-1.8,2.24-1.57.46.17.8.71,1.18,1.55-.03.15-.04.3-.05.44-.08.94,0,1.88.19,2.78.05.23.1.45.17.67.03.11.06.22.09.32.04.12.07.26.12.4.17.56.4,1.16.65,1.77.49,1.22,1.17,2.56,1.9,3.86l.53.98.59.95c.4.62.76,1.27,1.19,1.87,1.65,2.44,3.54,4.66,5.48,6.72,1.98,2.03,4.07,3.85,6.17,5.49"/>
      <path class="cls-2" d="M150.71,287.21c-1.1-.49-2.24-1.03-3.32-1.45,3.04.7,4.93.98,7.35,1.55,2.44.58,5.41,1.45,10.91,3.77-2.24.14-8.75-2.32-14.95-3.86"/>
      <path class="cls-3" d="M120.59,286.66c-.73.03-1.39.23-2.15.36-.71.2-1.45.41-2.18.7-.7.32-1.46.62-2.17,1.04-.72.43-1.44.91-2.16,1.47-2.88,2.23-5.64,5.74-7.86,9.84-1.1,2.08-1.49,3.12-1.74,4.56-.38-.84-.72-1.39-1.18-1.55-.6-.23-1.46.23-2.24,1.57-.4.7-.74,1.64-.91,2.8-.09.58-.13,1.22-.13,1.9,0,.65.07,1.47.21,2.34.28,1.73.82,3.73,1.64,5.85.36,1.08.84,2.15,1.34,3.26.47,1.13,1.09,2.22,1.68,3.37,2.45,4.56,5.99,9.17,10.34,13.4,2.19,2.09,4.56,4.12,7.14,5.93,2.55,1.85,5.3,3.49,8.14,4.95-8.94-4.38-16.93-10.69-23.1-18.42-3.09-3.86-5.72-8.07-7.76-12.54-1.06-2.22-1.9-4.49-2.45-6.75-.52-2.17-.74-4.43-.44-6.65.27-1.93.89-3.74,1.73-5.54.86-1.84,1.94-3.72,3.07-5.5,2.13-3.34,4.62-6.42,7.51-8.97,1.45-1.28,2.97-2.44,4.63-3.39,1.62-1.01,3.37-1.81,5.15-2.54,5.23-1.96,10.97-2.74,16.72-2.51,5.76.17,11.53,1.28,17.14,2.93,11.3,3.39,22.1,8.9,33.62,13.25l-2.53-1.97c-5.39-2.28-10.7-4.74-16.04-7.02-5.19-2.22-10.42-4.28-15.73-5.81-1.65-.49-3.32-.9-4.99-1.26-9.97-2.2-20.36-2.21-29.23,1.19l-1.64.66c-.53.24-1.05.51-1.58.77-1.07.48-2.02,1.14-3.03,1.71-1.94,1.24-3.74,2.67-5.39,4.24-3.31,3.12-6.02,6.7-8.34,10.35,3.08-5.96,7.29-11.65,13.04-15.63,5.72-4.02,12.78-6,19.8-6.38,9.37-.52,18.72,1.54,27.32,4.81,12.99,4.88,24.77,11.82,37.24,16.22,6.23,2.23,12.61,3.7,18.98,4.27,3.19.29,6.38.27,9.53,0,1.58-.11,3.13-.38,4.68-.63,1.53-.35,3.07-.66,4.55-1.16,2.14-.63,4.47-1.67,6.89-3.01.59-.38,1.19-.77,1.79-1.16.6-.41,1.25-.78,1.81-1.27,1.15-.96,2.4-1.89,3.46-3.06.55-.57,1.12-1.13,1.66-1.73.5-.63,1.01-1.26,1.52-1.9l.76-.97.68-1.03c.45-.7.9-1.4,1.35-2.1.39-.74.78-1.48,1.17-2.23l.58-1.13.49-1.17c.32-.78.66-1.56.96-2.36l.77-2.43c-1.81,6.14-4.88,12.01-9.39,16.76-.31.76-.6,1.56-.96,2.32,6.99-5.87,11.85-14.09,14.13-23l-.84,3.5-1.12,3.42c-1.52,4.13-3.61,8.08-6.27,11.66-2.64,3.6-5.98,6.75-9.75,9.24-6.8,4.56-14.73,6.72-22.31,7.13-4.71.28-9.33-.03-13.86-.65h0c-7.07-.94-14.04-2.92-20.7-5.29-6.69-2.36-13.24-5.13-19.87-7.74,5.1,2.35,10.29,4.88,15.73,7.27,2.63,1.38,3.89,2.17,4.05,2.55.35.82-4.63-.35-11.02-2.59-6.41-2.22-14.09-5.26-20.13-7.2l-1.67-.79c6.2,1.54,12.71,4,14.95,3.86-5.5-2.32-8.48-3.19-10.91-3.77-2.42-.57-4.31-.85-7.35-1.55-1.01-.72-2.05-1.39-3.11-2.06-3.95-1.29-7.99-2.14-12.01-2.56,3.08-.65-.65-1.29-4.9-1.19-4.25.05-8.71,1.32-8.13.41-3.32.91-6.42,2.34-9.23,4.29-2.81,1.98-5.37,4.53-7.62,7.43-.94,1.76-1.78,3.6-2.52,5.46-.36.92-.67,1.82-.91,2.68-.21.79-.37,1.55-.46,2.33.32-.75.7-1.43,1.12-2.15.47-.79.98-1.59,1.55-2.41,1.15-1.66,2.38-3.21,3.62-4.59,2.51-2.76,5.14-4.8,7.48-5.99,1.15-.63,2.29-.97,3.26-1.3.5-.13.99-.21,1.42-.3.43-.09.83-.14,1.22-.13.75,0,1.32.04,1.73.21.42.18.64.43.67.77"/>
      <path class="cls-19" d="M101.16,303.08c-.6-.23-1.46.23-2.24,1.57-.4.7-.74,1.64-.91,2.8-.09.58-.13,1.22-.13,1.9,0,.65.07,1.47.21,2.34.28,1.73.82,3.73,1.64,5.85.36,1.08.84,2.15,1.34,3.26.47,1.13,1.09,2.22,1.68,3.37,2.45,4.56,5.99,9.17,10.34,13.4,2.19,2.09,4.56,4.12,7.14,5.93,2.55,1.85,5.3,3.49,8.14,4.95-2.84-1.46-5.59-3.1-8.14-4.95-2.58-1.8-4.95-3.84-7.14-5.93-4.34-4.23-7.89-8.84-10.34-13.4-.6-1.15-1.22-2.24-1.68-3.37-.5-1.11-.98-2.18-1.34-3.26-.83-2.13-1.36-4.13-1.64-5.85-.14-.87-.22-1.68-.21-2.34,0-.68.03-1.32.13-1.9.17-1.16.51-2.1.91-2.8.78-1.35,1.64-1.8,2.24-1.57"/>
      <path class="cls-24" d="M147.4,285.76c3.04.7,4.93.98,7.35,1.55,2.44.58,5.41,1.45,10.91,3.77-5.5-2.32-8.48-3.19-10.91-3.77-2.42-.57-4.31-.85-7.35-1.55"/>
      <path class="cls-2" d="M259.67,249.73c.64,5.78.2,11.52-1.18,16.97l-.84,3.5-1.12,3.42c-1.52,4.13-3.61,8.08-6.27,11.66-2.64,3.6-5.98,6.75-9.75,9.24l-.9.88c3.38-2.03,6.37-4.62,9.04-7.49,2.55-2.95,4.76-6.18,6.49-9.64-1.77,3.88-4.17,7.52-7.06,10.78-.75.79-1.47,1.62-2.27,2.37l-2.49,2.17c-.84.71-1.78,1.3-2.68,1.95-.9.66-1.84,1.2-2.78,1.72.56-.28,1.12-.55,1.7-.84.56-.33,1.12-.68,1.69-1.04.57-.36,1.14-.73,1.72-1.11.57-.39,1.09-.85,1.65-1.29.54-.45,1.1-.9,1.65-1.36.53-.48,1.02-1.01,1.54-1.52.51-.52,1.02-1.05,1.53-1.59.46-.57.93-1.15,1.39-1.73,3.71-4.69,6.46-10.36,8.08-16.29,1.68-6.75,2.05-13.82.85-20.76M256.53,273.62c-1.52,4.13-3.61,8.08-6.27,11.66-2.64,3.6-5.98,6.75-9.75,9.24,3.77-2.49,7.12-5.64,9.75-9.24,2.67-3.58,4.75-7.53,6.27-11.66"/>
      <path class="cls-21" d="M256.53,273.62c-1.52,4.13-3.61,8.08-6.27,11.66-2.64,3.6-5.98,6.75-9.75,9.24,3.77-2.49,7.12-5.64,9.75-9.24,2.67-3.58,4.75-7.53,6.27-11.66"/>
      <path class="cls-2" d="M148.06,286.57l-.66-.81c1.07.43,2.22.96,3.32,1.45l-2.65-.64"/>
      <polyline class="cls-2" points="91.49 326.27 91.43 327.6 91.49 326.27"/>
      <path class="cls-10" d="M153.93,299.28c-5.12-2.78-7.78-4.38-9.05-5.58-1.27-1.22-1.3-2.07-.74-2.84.56-.77,1.69-1.34,2.63-1.99.93-.65,1.69-1.29,1.28-2.3l2.65.64,1.67.79c6.04,1.94,13.72,4.98,20.13,7.2,6.39,2.23,11.37,3.41,11.02,2.59-.16-.38-1.42-1.17-4.05-2.55-5.43-2.39-10.62-4.92-15.73-7.27,6.64,2.61,13.18,5.38,19.87,7.74,6.66,2.37,13.63,4.34,20.7,5.29,4.54.62,9.16.93,13.87.65,7.58-.41,15.51-2.56,22.31-7.13l-.9.88c-6.25,3.89-13.37,5.92-20.24,6.44,2.89-.02,6.13-.4,9.53-1.28,3.39-.88,6.96-2.25,10.36-4.27,3.41-2.1,6.65-4.73,9.34-7.84,2.65-3.13,4.88-6.57,6.55-10.17-1.77,3.88-4.17,7.52-7.06,10.78-.75.79-1.47,1.62-2.27,2.37l-2.49,2.17c-.84.71-1.78,1.3-2.68,1.95-.9.66-1.84,1.2-2.78,1.72.56-.28,1.12-.55,1.7-.84.56-.33,1.12-.68,1.69-1.04.57-.36,1.14-.73,1.72-1.11.57-.39,1.09-.85,1.65-1.29.54-.45,1.1-.9,1.65-1.36.53-.48,1.02-1.01,1.54-1.52.51-.52,1.02-1.05,1.53-1.59.46-.57.93-1.15,1.39-1.73,3.71-4.69,6.46-10.36,8.08-16.29l-.58,3.7c2.25-4.51,3.75-9.42,4.56-14.55-.34,4.94-1.39,9.78-3.14,14.37-1.74,4.59-4.14,8.95-7.21,12.86-.9,1.48-1.8,2.99-2.92,4.37-.54.7-1.07,1.42-1.65,2.1l-1.85,1.98c4.67-2.85,9.53-7.05,13.69-13.44,1.1-1.58,1.97-3.34,2.94-5.21.47-.94.84-1.93,1.27-2.94.2-.51.41-1.03.62-1.55.2-.53.35-1.07.53-1.61,1.46-4.36,2.38-9.38,2.46-15.05-.06,7.44-1.56,14.24-4.15,20.54-2.61,6.28-6.44,12.11-11.66,17.18-.66.63-1.31,1.26-2,1.87-.73.58-1.46,1.15-2.2,1.74-1.44,1.2-3.12,2.16-4.75,3.19-3.31,1.9-6.86,3.45-10.66,4.59-7.59,2.23-15.87,2.83-24.48,1.94l-2.47.66c-1.18-.24-2.34-.53-3.5-.79l-3.42-.94c3.82,1.67,10.29,3.27,17.18,3.7,3.43.24,6.97.11,10.17-.13,3.22-.32,6.11-.77,8.28-1.11-4.16,1.19-8.31,1.84-12.33,2.08-4.03.25-7.91.02-11.66-.42.3.28,1.22.63,2.55.86.66.13,1.42.25,2.23.37.82.1,1.72.17,2.63.24,3.66.27,7.84.05,10.04-.02-5.22.77-9.19.53-12.55.13-3.33-.49-6.1-1.14-8.83-1.96-2.75-.78-5.47-1.68-8.72-2.7-1.61-.52-3.35-1.08-5.3-1.71-.96-.32-1.97-.66-3.04-1.02-1.03-.35-2.11-.73-3.26-1.12-.27-.1-.55-.19-.82-.29-.42-.15-.85-.3-1.27-.45-3.99-1.46-7.32-2.79-10.17-3.88-2.86-1.1-5.22-1.96-7.19-2.6-3.94-1.29-6.32-1.68-7.54-1.49-2.37.42-.28,2.98,5.01,6.8l-5.17-2.76c-4.9-1.71-5.2-1.23-4.79-.51.42.73,1.69,1.88.26,1.78"/>
      <path class="cls-6" d="M183.53,297.79c-.16-.38-1.42-1.17-4.05-2.55-5.43-2.39-10.62-4.92-15.73-7.27,5.1,2.35,10.29,4.88,15.73,7.27,2.63,1.38,3.89,2.17,4.05,2.55"/>
      <path class="cls-6" d="M163.75,287.97c6.64,2.61,13.18,5.38,19.87,7.74,6.66,2.37,13.63,4.34,20.7,5.29-7.07-.94-14.04-2.92-20.7-5.29-6.69-2.36-13.24-5.13-19.87-7.74"/>
      <path class="cls-13" d="M255.12,278.27c-1.77,3.88-4.17,7.52-7.06,10.78-.75.79-1.47,1.62-2.27,2.37l-2.49,2.17c-.84.71-1.78,1.3-2.68,1.95-.9.66-1.84,1.2-2.78,1.72.95-.53,1.89-1.06,2.78-1.72.9-.64,1.84-1.24,2.68-1.95l2.49-2.17c.8-.75,1.51-1.58,2.27-2.37,2.88-3.27,5.28-6.9,7.06-10.78"/>
      <polyline class="cls-13" points="239.6 295.39 240.5 294.52 239.6 295.39"/>
      <path class="cls-10" d="M249.71,234.45c-.84-1.27-1.87-2.39-2.83-3.55-.63-.71-1.39-1.29-2.08-1.94-.7-.63-1.4-1.25-2.16-1.8.81.76,1.51,1.64,2.24,2.48.36.43.73.84,1.07,1.28l.99,1.36-.99-1.36c-.34-.44-.72-.85-1.07-1.28-.73-.85-1.43-1.72-2.24-2.48l-1.35-.18c3.49,3.74,6.37,8.03,8.36,12.66l-.95-1.94-1.1-1.85c-.7-1.26-1.59-2.4-2.42-3.57,2.45,3.57,4.35,7.48,5.51,11.58-1.71-5.03-4.47-9.69-7.94-13.75l-.36.34c.54.7,1.09,1.39,1.61,2.09l1.45,2.2c1.74,2.62,3.36,5.4,4.49,8.44.66,1.48,1.03,3.06,1.49,4.59.2.78.32,1.57.49,2.36l.23,1.18c.06.39.09.79.14,1.19.08.79.17,1.58.25,2.37.02.79.03,1.58.05,2.36v1.17s-.06,1.16-.06,1.16c-.06.77-.11,1.54-.17,2.3-.12.75-.24,1.5-.35,2.24l-.18,1.11-.27,1.08c-.18.71-.36,1.42-.54,2.12-.22.69-.47,1.36-.71,2.02,1.41-5.06,1.96-10.34,1.53-15.6-.51-5.55-2.13-11.06-4.96-16.03-2.89-4.92-6.8-9.36-11.55-12.9-1.17-.71-2.28-1.5-3.51-2.11,3.18,2.13,6.22,4.69,8.85,7.6,2.65,2.89,4.8,6.21,6.39,9.61,1.57,3.41,2.59,6.9,2.94,10.22.15.82.12,1.65.18,2.44.05.8.09,1.57.02,2.33-.04.76-.08,1.49-.12,2.21-.08.71-.21,1.4-.31,2.06.04-1.06.1-2.1.02-3.12-.3-10-3.92-18.21-9.58-24.85-2.84-3.31-6.22-6.24-10.18-8.68-3.96-2.43-8.5-4.41-13.69-5.53-.55-.11-1.1-.22-1.65-.33,1.22.36,2.53.71,3.86,1.22.67.25,1.36.45,2.04.75.68.29,1.38.59,2.08.89,2.77,1.29,5.65,2.78,8.24,4.67,2.61,1.85,5.05,3.92,7.02,6.14,1.04,1.06,1.88,2.23,2.72,3.29.78,1.11,1.47,2.2,2.07,3.22-4.03-6.44-9.83-11.61-16.42-15.25-3.31-1.79-6.82-3.22-10.45-4.25-3.63-1.04-7.4-1.66-11.22-1.77-.68,0-1.36.03-2.03.08-5.08.24-9.98,1.2-14.68,2.43-4.71,1.24-9.22,2.77-13.65,4.31-8.85,3.11-17.34,6.44-25.99,9.04,7.44-1.98,14.81-4.49,22.2-6.89-7.39,2.4-14.75,4.91-22.2,6.89-6.95,2.05-13.96,3.61-20.82,4.11-6.82.41-13.73-.43-19.53-3.14-2.9-1.34-5.4-3.24-7.29-5.54l-.7-.87c-.21-.31-.4-.63-.6-.94-.19-.32-.41-.62-.59-.95l-.5-1c-.61-1.35-1.06-2.77-1.34-4.21-1.08-5.86.53-12.31,3.87-17.39-3.81,5.14-5.88,12.07-4.7,18.64-1.11-2.96-1.45-6.46-1.01-9.91.22-1.73.61-3.46,1.17-5.14.58-1.68,1.31-3.3,2.18-4.85,3.55-6.24,9.09-11.03,14.35-14.74-4.44,2.74-8.49,5.83-11.8,9.5-3.32,3.65-5.9,7.91-7.25,12.62-1.36,4.68-1.59,9.79-.08,14.62.17.61.39,1.2.65,1.78.22.6.52,1.16.81,1.73.27.58.65,1.1.99,1.64.34.54.69,1.09,1.12,1.57,1.57,2.06,3.59,3.8,5.82,5.19-2.23-1.39-4.26-3.13-5.82-5.19-.43-.48-.78-1.03-1.12-1.57-.34-.54-.72-1.06-.99-1.64-.29-.57-.59-1.13-.81-1.73-.25-.58-.47-1.17-.65-1.78-1.5-4.84-1.28-9.95.08-14.62,1.35-4.71,3.93-8.97,7.25-12.62,3.31-3.68,7.35-6.76,11.8-9.5,1.08-.76,2.19-1.49,3.32-2.2-3.85,1.82-7.84,4.14-11.55,7.16-3.7,3.01-7.09,6.78-9.47,11.26-2.35,4.48-3.65,9.59-3.5,14.66.12,5.07,1.9,10.08,4.86,13.82-2.14-2.59-3.63-5.52-4.39-8.58-.75-3.07-.93-6.16-.58-9.22.69-6.1,3.21-12.2,7.79-17.82-.97.99-1.88,2.05-2.74,3.16-1.17,1.75-2.16,3.66-2.95,5.63.79-1.97,1.78-3.88,2.95-5.63,3.78-5.73,8.7-9.77,13.64-12.94,2.48-1.59,5.01-2.96,7.56-4.19,2.54-1.25,5.11-2.35,7.71-3.36,5.26-3.1,11.35-5.9,18-8.01,6.64-2.11,13.87-3.4,21.12-3.66,2.41-.07,4.82-.08,7.21-.03-5.13-.3-10.34-.39-15.56-.01,1.74-.08,3.49-.14,5.22-.12-7.3.05-14.64.86-21.84,2.42-6.57,1.22-13.1,3.01-19.44,5.48,7.1-3.34,14.54-5.89,22.17-7.61l-3.19.45-3.18.55c-5.69,1.58-11.02,3.5-15.85,5.57-4.84,2.07-9.21,4.21-13.16,6.43,3.7-2.58,7.47-4.75,11.34-6.75,3.88-1.99,7.88-3.74,11.97-5.26,4.65-2.11,9.47-3.94,14.42-5.41-.84-.41-1.68-.79-2.53-1.18-4.78.41-11.04,1.61-18.13,4.11-3.54,1.25-7.29,2.82-11.13,4.78-3.82,1.94-7.87,4.3-11.96,7.38-.97.73-1.94,1.5-2.91,2.32.64.12,1.27.23,1.9.38-1.78,1.03-3.57,2.13-5.33,3.41-2.49,2.96-4.76,6.28-6.6,9.87-1.08,1.66-2.16,3.54-3.03,5.44-.88,1.91-1.63,3.87-2.21,5.91-.48,3.51-.88,7.54-.5,12.05.33,4.42,1.52,9.63,4.07,14.27,1.25,2.34,2.86,4.53,4.68,6.55.92,1,1.94,1.93,2.95,2.85,1.06.81,2.1,1.7,3.2,2.39,4.39,2.91,9.09,4.67,13.5,5.71-1.26-.39-2.5-.74-3.75-1.26-.62-.24-1.24-.47-1.86-.74l-1.85-.87c4.27,1.1,9.06,2.04,13.97,2.51,3.68.35,7.43.44,11.06.26,1.8-.09,3.65-.25,5.25-.45,1.65-.18,3.21-.43,4.71-.69,4.41-.62,8.72-1.49,12.92-2.51.39-.13.74-.25,1.11-.37l-.43.21.46-.11c5.85-1.81,11.45-3.85,16.86-5.86l8.62-2.71c1.59-.43,3.18-.85,4.74-1.24-1.56.39-3.15.81-4.74,1.24l-5.68,1.88,4.87-1.25-9.57,3.19c6.53-2.07,12.84-4.14,18.9-5.76,2.09-.61,4.13-1.15,6.12-1.6l-1.67.59c2.63-.51,5.17-.88,7.59-1.06,2.51-.28,4.98-.4,7.15-.21,2.17.1,4.36.53,6.48,1.09,2.98.45,5.95,1.3,8.73,2.52-2.38-.97-4.88-1.7-7.39-2.15l-2.05-.31c-.69-.04-1.37-.1-2.05-.16,2.26.28,4.5.83,6.69,1.53,2.18.75,4.26,1.73,6.23,2.84-.27.02-.56.09-.84.13,4.6,2.73,9.4,7.3,11.47,12.42l.19.48c.69,1.3,1.08,2.82,1.48,4.37.06.4.12.8.19,1.21l.11.6.04.62c.03.41.07.83.11,1.25v1.26c-.06-2.99-.68-5.87-1.73-8.28l-.71.79c.78,2.29,1.3,5.03,1.25,7.93-.01,2.89-.75,5.87-1.98,8.36-.16.3-.28.63-.46.91l-.55.83c-.31.6-.8,1-1.18,1.51.24-.22.49-.45.75-.66-.39.47-.7,1.05-1.13,1.44-.2.22-.39.44-.58.67-.2.21-.43.37-.64.57-.22.18-.4.41-.62.57-.23.15-.46.31-.67.47-.38.36-1,.63-1.5.97-1.79,1.16-3.96,2.06-6.49,2.68-2.52.61-5.38.93-8.39.91,1.65.35,3.31.66,4.9.81-1.6-.15-3.25-.47-4.9-.81-2.71,0-5.52-.26-8.33-.72-1.41-.24-2.81-.5-4.21-.81-1.42-.32-2.9-.69-4.36-1.1-5.87-1.62-11.85-3.73-17.9-5.76-6.03-2.03-12.14-3.95-18.17-5.29-2.98-.67-6.1-1.19-9.02-1.54-2.96-.3-5.81-.5-8.56-.45,4.06.32,8.04.96,11.91,1.84,3.91.89,7.5,1.96,11,3.1,6.96,2.28,13.24,4.73,18.86,6.65,4.18,1.55,8.21,2.99,12.14,4.2.98.3,1.96.57,2.93.85.95.23,1.89.51,2.83.71,1.89.44,3.78.8,5.65,1.08,7.49,1.12,14.74.72,20.3-1.61.62-.25,1.19-.56,1.79-.82.54-.34,1.16-.62,1.66-.98-3.3,2.8-7.97,4.72-13.46,5.46l.78-.04c-1.28.28-2.62.48-3.99.65,1.09-.2,2.18-.34,3.21-.62-6.3.25-12.76-.79-18.85-2.46-6.24-1.72-12.47-4.1-18.87-6.57-6.41-2.47-13.01-5.09-20.19-7.27-3.56-1.08-7.41-2.07-11.32-2.78-3.92-.72-7.99-1.2-12.24-1.33.98-.06,1.96-.1,2.93-.09.97,0,1.96-.02,2.92.03-4.92-.43-9.98-.39-15.08.38-5.09.76-10.23,2.23-15.04,4.65-2.39,1.25-4.7,2.67-6.84,4.31-2.13,1.65-4.06,3.47-5.81,5.38-3.48,3.85-6.21,8.05-8.45,12.36-.36.88-.72,1.79-1.06,2.74-.17.47-.33.96-.49,1.45-.16.5-.34,1.07-.48,1.6-.6,2.16-.97,4.35-1.03,6.54-.05,2.02.16,4.03.58,5.97.42,1.91,1.06,3.87,1.77,5.49-.49-1.68-.9-3.66-1.09-5.55-.19-1.91-.17-3.84.1-5.74.21-1.43.54-2.83,1-4.2.22-.68.48-1.36.75-2.02.14-.33.28-.67.43-.99l.42-.91-.37.94c-.13.33-.25.67-.37,1.01-.24.68-.45,1.36-.63,2.05-.38,1.38-.63,2.78-.76,4.19-.06.88-.1,1.75-.06,2.62.05.81.25,2.79.7,4.59.21.89.48,1.77.7,2.4.23.62.42,1.07.53,1.19.15.16.07-.28-.23-1.85-.15-.81-.35-1.9-.48-3.35-.13-1.45-.18-3.26.12-5.45.24-1.67.74-3.58,1.59-5.68.86-2.12,1.95-4.16,3.3-6.42,1.36-2.25,3.01-4.7,5.14-7.22,2.13-2.51,4.76-5.12,8.11-7.44,2.6-1.79,5.39-3.27,8.31-4.41,2.93-1.12,5.96-1.87,9-2.36-4.74.83-9.26,2.49-13.23,4.79-1.01.54-1.94,1.21-2.87,1.85-.94.62-1.8,1.35-2.64,2.06-1.67,1.44-3.16,3.01-4.5,4.62-2.68,3.23-4.72,6.68-6.35,10.09-1.62,3.37-2.93,7.01-3.04,10.49-.05,1.18.03,2.23.18,3.24.02-1.07.12-2.13.32-3.18.65-3.32,2.23-6.28,4.01-9.05,3.07-5.95,7.29-11.65,13.04-15.63,5.72-4.02,12.78-6,19.8-6.38,9.37-.52,18.72,1.54,27.32,4.81,12.99,4.88,24.77,11.82,37.24,16.22,6.23,2.23,12.61,3.7,18.98,4.27,3.19.29,6.38.27,9.53,0,1.58-.11,3.13-.38,4.68-.63,1.53-.35,3.07-.66,4.55-1.16,2.14-.63,4.47-1.67,6.89-3.01.59-.38,1.19-.77,1.79-1.16.6-.41,1.25-.78,1.81-1.27,1.15-.96,2.4-1.89,3.46-3.06.55-.57,1.12-1.13,1.66-1.73.5-.63,1.01-1.26,1.52-1.9l.76-.97.68-1.03c.45-.7.9-1.4,1.35-2.1.39-.74.78-1.48,1.17-2.23l.58-1.13.49-1.17c.32-.78.66-1.56.96-2.36l.77-2.43.32-1.09.24-1.11c-.28,1.1-.72,2.15-1.12,3.21-.21.53-.39,1.06-.62,1.57l-.73,1.53c1.41-3.07,2.34-6.33,3.01-9.65-1.31,5.12-3.48,9.95-6.43,14.17,3.52-5.56,5.93-11.95,6.67-18.66-.03-1.13,0-2.25-.15-3.37-.19,5.6-1.4,11.1-3.63,16.13.35-.7.57-1.45.83-2.18.25-.74.54-1.47.75-2.22.37-1.51.87-3.01,1.08-4.56l.4-2.32.22-2.35c.2-1.57.11-3.15.15-4.74-.27-1.48-.59-2.94-.96-4.38-.51-5.54-2.27-11.16-5.03-16.17M110.69,238.56c-3.71-1.23-7.12-3.06-9.94-5.55-2.84-2.47-4.93-5.69-6.12-9.26-1.16-3.6-1.37-7.54-.72-11.54.67-4.01,2.2-8.1,4.77-11.96-2.56,3.86-4.1,7.95-4.77,11.96-.65,4.01-.44,7.95.72,11.54,1.19,3.57,3.29,6.79,6.12,9.26,2.82,2.49,6.22,4.32,9.94,5.55,1.99.61,4.02,1.15,6.09,1.47,1.38.22,2.76.32,4.15.42-1.39-.1-2.77-.2-4.15-.42-2.06-.32-4.09-.86-6.09-1.47l1.09-.05c5.33,1.45,10.91,1.69,16.39,1.29-5.48.4-11.05.16-16.39-1.29l-1.09.05M191.78,219.41c-6.82,1.64-12.4,3.34-17.87,4.96-5.47,1.64-10.78,3.38-16.94,5.63,6.16-2.25,11.47-3.98,16.94-5.63,5.47-1.62,11.05-3.33,17.87-4.96M203.63,217.59h1c3.32-.1,6.64.33,9.88.96-3.24-.63-6.56-1.06-9.88-.97h-1c-6,.14-11.26,1.04-16.44,2.26-5.18,1.23-10.28,2.84-16,4.88,5.72-2.04,10.82-3.65,16-4.88,5.18-1.22,10.44-2.11,16.44-2.25M121.98,239.57c2.05-.05,4.08-.29,6.1-.56-2.02.27-4.05.51-6.1.56M151.6,271.26c-8.97-2.24-18.43-3.14-27.77-1.48,9.34-1.66,18.8-.76,27.77,1.48M151.6,271.26c-8.97-2.24-18.43-3.14-27.77-1.48,9.34-1.66,18.8-.76,27.77,1.48M151.6,271.26c1.39.35,2.72.77,4.07,1.17,1.35.39,2.7.78,4.02,1.22,1.33.44,2.62.93,3.93,1.41l3.69,1.31c.13.05.25.1.38.14l3.64,1.45,3.8,1.43,3.73,1.51,3.75,1.37c1.24.45,2.48.88,3.72,1.29l2.76.95c1.23.37,2.47.77,3.7,1.09,1.24.35,2.46.65,3.67.94,1.21.27,2.43.53,3.64.74.92.13,1.84.3,2.75.38l1.82.23,1.81.16c.91.04,1.81,0,2.71,0-3.43-.23-6.79-.74-10.04-1.43-1.63-.35-3.22-.74-4.81-1.17-1.6-.44-3.18-.92-4.76-1.41-6.3-2.01-12.41-4.38-18.67-6.66l-1.36-.51-1.04-.36c-1.54-.56-3.11-1.1-4.68-1.64l-1.13-.38c-1.31-.45-2.64-.87-3.97-1.29-.74-.23-1.51-.42-2.26-.64-1.61-.47-3.22-.89-4.89-1.29M89.25,294.97c.88-1.83,1.83-3.49,2.85-5.18.7-1.14,1.43-2.31,2.23-3.43.86-1.21,1.77-2.4,2.74-3.55.94-1.17,1.95-2.3,3.01-3.39,1.35-1.36,2.8-2.65,4.35-3.83l1.11-.86,1.16-.8c.53-.35,1.06-.71,1.6-1.05l1.67-.94c1.1-.66,2.27-1.14,3.43-1.7l.09-.04c.71-.33,1.44-.58,2.17-.87l1.09-.42,1.11-.34-1.11.34-1.09.42c-.72.29-1.46.54-2.17.87.71-.33,1.44-.58,2.17-.87l1.09-.42,1.11-.34-1.11.34-1.09.42c-.72.29-1.46.54-2.17.87l-.04.02c.72-.34,1.45-.58,2.18-.87l1.1-.42,1.12-.35c-.9.26-1.83.62-2.78.98-.47.19-.96.35-1.44.56-.47.22-.95.43-1.43.65-1.01.42-1.99.95-2.96,1.48-.87.44-1.7.97-2.52,1.51l-1.23.8-1.19.87c-.48.38-.97.76-1.44,1.16-1.39,1.15-2.71,2.39-3.94,3.7-.72.76-1.43,1.53-2.1,2.33-.67.84-1.33,1.7-1.94,2.57-1.16,1.6-2.2,3.23-3.14,4.86-.93,1.62-1.77,3.22-2.51,4.93M99.87,180.18l.19.23c1.33-.94,2.66-1.83,4.01-2.65-1.4.73-2.8,1.55-4.2,2.41"/>
      <path class="cls-20" d="M151.6,271.26c5.4,1.36,10.63,3.18,15.72,5.1l-3.69-1.31c-1.31-.47-2.6-.96-3.93-1.41-1.32-.43-2.68-.82-4.02-1.22-1.35-.4-2.68-.82-4.07-1.17"/>
      <path class="cls-20" d="M156.49,272.55c.75.21,1.52.41,2.26.64,1.33.42,2.66.84,3.97,1.29l1.13.38c-2.41-.8-4.84-1.6-7.35-2.31"/>
      <path class="cls-20" d="M167.7,276.5c7.59,2.88,14.87,5.93,21.86,8.1,3.51,1.1,6.88,1.98,10.16,2.55,3.29.58,6.48.88,9.49.89-.9,0-1.8.05-2.71,0l-1.81-.16-1.82-.23c-.92-.08-1.83-.25-2.75-.38-1.21-.21-2.43-.47-3.64-.74-1.21-.29-2.43-.59-3.67-.94-1.23-.33-2.46-.72-3.7-1.09l-2.76-.95c-1.24-.42-2.48-.84-3.72-1.29l-3.75-1.37-3.73-1.51-3.8-1.43-3.64-1.45"/>
      <polyline class="cls-20" points="168.53 276.5 169.57 276.86 170.92 277.37 168.53 276.5"/>
      <path class="cls-8" d="M152.17,244.52l-.43.21-.68.16c.39-.13.74-.25,1.11-.37"/>
      <path class="cls-13" d="M215.04,279.99c-1.6-.15-3.25-.47-4.9-.81,1.65.35,3.31.66,4.9.81"/>
      <path class="cls-13" d="M161.39,166.54c-1.74-.01-3.48.04-5.22.12,1.74-.08,3.49-.14,5.22-.12"/>
      <path class="cls-13" d="M142.28,166.82c-7.62,1.73-15.07,4.28-22.17,7.61,7.1-3.34,14.54-5.89,22.17-7.61"/>
      <path class="cls-13" d="M106.9,179.82c3.7-2.58,7.47-4.75,11.34-6.75,3.88-1.99,7.88-3.74,11.97-5.26-4.09,1.51-8.1,3.26-11.97,5.26-3.87,2-7.64,4.17-11.34,6.75"/>
      <path class="cls-7" d="M151.6,271.26c1.39.35,2.72.77,4.07,1.17,1.35.39,2.7.78,4.02,1.22,1.33.44,2.62.93,3.93,1.41l3.69,1.31-3.69-1.31c-1.31-.47-2.6-.96-3.93-1.41-1.32-.43-2.68-.82-4.02-1.22-1.35-.4-2.68-.82-4.07-1.17"/>
      <path class="cls-7" d="M156.49,272.55c.75.21,1.52.41,2.26.64,1.33.42,2.66.84,3.97,1.29l1.13.38-1.13-.38c-1.31-.45-2.64-.87-3.97-1.29-.74-.23-1.51-.42-2.26-.64"/>
      <path class="cls-7" d="M167.7,276.5l3.64,1.45,3.8,1.43,3.73,1.51,3.75,1.37c1.24.45,2.48.88,3.72,1.29l2.76.95c1.23.37,2.47.77,3.7,1.09,1.24.35,2.46.65,3.67.94,1.21.27,2.43.53,3.64.74.92.13,1.84.3,2.75.38l1.82.23,1.81.16c.91.04,1.81,0,2.71,0-.9,0-1.8.05-2.71,0l-1.81-.16-1.82-.23c-.92-.08-1.83-.25-2.75-.38-1.21-.21-2.43-.47-3.64-.74-1.21-.29-2.43-.59-3.67-.94-1.23-.33-2.46-.72-3.7-1.09l-2.76-.95c-1.24-.42-2.48-.84-3.72-1.29l-3.75-1.37-3.73-1.51-3.8-1.43-3.64-1.45"/>
      <polyline class="cls-7" points="168.53 276.5 169.57 276.86 170.92 277.37 169.57 276.86 168.53 276.5"/>
      <path class="cls-7" d="M123.83,269.78c9.34-1.66,18.8-.76,27.77,1.48-8.97-2.24-18.43-3.14-27.77-1.48"/>
      <path class="cls-7" d="M123.83,269.78c9.34-1.66,18.8-.76,27.77,1.48-8.97-2.24-18.43-3.14-27.77-1.48"/>
      <path class="cls-6" d="M254.71,270.62l-.77,2.43c-.3.79-.64,1.57-.96,2.36l-.49,1.17-.58,1.13c-.39.75-.78,1.49-1.17,2.23-.45.71-.9,1.41-1.35,2.1l-.68,1.03-.76.97c-.51.64-1.02,1.27-1.52,1.9-.54.6-1.11,1.16-1.66,1.73-1.06,1.17-2.31,2.1-3.46,3.06-.56.5-1.21.87-1.81,1.27-.61.39-1.21.78-1.79,1.16-2.42,1.34-4.75,2.38-6.89,3.01-1.48.49-3.02.81-4.55,1.16-1.55.25-3.1.52-4.68.63-3.15.27-6.34.29-9.53,0-6.38-.57-12.76-2.04-18.98-4.27-12.46-4.4-24.25-11.34-37.24-16.22,12.99,4.88,24.77,11.82,37.24,16.22,6.23,2.23,12.61,3.7,18.98,4.27,3.19.29,6.38.27,9.53,0,1.58-.11,3.13-.38,4.68-.63,1.53-.35,3.07-.66,4.55-1.16,2.14-.63,4.47-1.67,6.89-3.01.59-.38,1.19-.77,1.79-1.16.6-.41,1.25-.78,1.81-1.27,1.15-.96,2.4-1.89,3.46-3.06.55-.57,1.12-1.13,1.66-1.73.5-.63,1.01-1.26,1.52-1.9l.76-.97.68-1.03c.45-.7.9-1.4,1.35-2.1.39-.74.78-1.48,1.17-2.23l.58-1.13.49-1.17c.32-.78.66-1.56.96-2.36l.77-2.43"/>
      <path class="cls-6" d="M95.7,294.68c3.07-5.95,7.29-11.65,13.04-15.63,5.72-4.02,12.78-6,19.8-6.38-7.02.38-14.08,2.36-19.8,6.38-5.75,3.98-9.97,9.67-13.04,15.63"/>
      <path class="cls-20" d="M97.07,282.8c-.98,1.15-1.88,2.34-2.74,3.55,3.2-4.56,7.22-9.03,12.37-12.43l-1.16.8-1.11.86c-1.55,1.18-3,2.47-4.35,3.83-1.06,1.09-2.07,2.23-3.01,3.39"/>
      <path class="cls-20" d="M94.9,285.18c.61-.87,1.27-1.73,1.94-2.57.67-.79,1.37-1.57,2.1-2.33-1.48,1.57-2.81,3.21-4.04,4.9"/>
      <path class="cls-20" d="M102.87,276.58c.47-.4.96-.78,1.44-1.16l1.19-.87,1.23-.8c.82-.54,1.65-1.07,2.52-1.51.97-.54,1.94-1.06,2.96-1.48-3.16,1.47-6.41,3.38-9.33,5.82"/>
      <path class="cls-20" d="M113.39,270.24s.04-.02.06-.03l.04-.02-.09.04"/>
      <polyline class="cls-2" points="89.99 323.26 88.93 321.28 89.99 323.26"/>
      <path class="cls-18" d="M87.65,314.38c.51,1.77,1.11,3.45,1.77,5.06.69,1.58,1.38,3.14,2.15,4.67.8,1.51,1.57,3.04,2.47,4.48.85,1.48,1.81,2.88,2.77,4.28,3.88,5.57,8.56,10.5,13.74,14.82,5.23,4.25,10.97,7.93,17.19,10.73,6.22,2.82,12.83,4.84,19.63,5.95-5.52-.39-11.06-1.3-16.54-2.82l2.2.57c-3.56-1.25-7.97-3.09-12.56-5.56-1.16-.59-2.3-1.29-3.46-1.98-1.18-.67-2.31-1.45-3.46-2.21-3.43-2.35-6.82-4.98-9.81-7.88-2.99-2.89-5.7-5.92-7.87-8.92-.84-1.26-1.57-2.61-2.35-3.91-.72-1.34-1.42-2.69-2.08-4.05l.09-.05-.03-1.28c.61.94,1.3,1.84,1.98,2.73.68.89,1.35,1.78,2.1,2.61-1.07-1.28-1.97-2.69-2.95-4.05-.9-1.41-1.82-2.82-2.63-4.3l-1.06-1.98c-1.33-2.5-2.52-5.22-3.41-8.31-.92-3.27-1.36-6.72-1.04-10.15.21-2.24.73-4.44,1.47-6.59.18-.52.4-1.09.59-1.58.19-.48.39-.95.59-1.42.4-.92.82-1.8,1.24-2.65-.36.88-.72,1.79-1.06,2.74-.17.47-.33.96-.49,1.45-.16.5-.34,1.07-.48,1.6-.6,2.16-.97,4.35-1.03,6.54-.05,2.02.16,4.03.58,5.97.42,1.91,1.06,3.87,1.77,5.49"/>
      <path class="cls-1" d="M120.46,356.55c4.59,2.47,9,4.31,12.56,5.56-3.56-1.25-7.96-3.08-12.55-5.55-1.17-.59-2.31-1.29-3.47-1.99-1.18-.67-2.31-1.45-3.46-2.22,1.15.77,2.28,1.54,3.46,2.21,1.16.7,2.3,1.39,3.46,1.98"/>
      <polyline class="cls-1" points="133.02 362.11 130.83 361.55 133.02 362.11"/>
      <polyline class="cls-4" points="91.49 326.27 91.52 327.55 91.43 327.6 91.49 326.27"/>
      <path class="cls-1" d="M87.65,314.38c-.71-1.61-1.35-3.57-1.77-5.49-.42-1.94-.63-3.95-.58-5.97.06-2.19.43-4.38,1.03-6.54.15-.53.32-1.1.48-1.6.16-.49.32-.98.49-1.45.34-.95.69-1.86,1.06-2.74-.36.88-.72,1.79-1.06,2.74-.17.47-.33.96-.49,1.45-.16.5-.34,1.07-.48,1.6-.6,2.16-.97,4.35-1.03,6.54-.05,2.02.16,4.03.58,5.97.42,1.91,1.06,3.87,1.77,5.49"/>
      <path class="cls-18" d="M95.27,316.47c1.49,3.39,3.3,6.93,5.55,10.37,2.23,3.45,4.92,6.78,7.89,9.88,5.94,6.21,13.16,11.4,20.37,14.94-6.4-1.78-15.01-5.79-22.82-12.35-3.91-3.26-7.6-7.11-10.77-11.33l-1.18-1.59c-.37-.55-.73-1.1-1.1-1.64-.36-.55-.73-1.1-1.09-1.64-.33-.57-.66-1.13-.99-1.69-1.34-2.21-2.51-4.55-3.48-7.03-.49-1.68-.9-3.66-1.09-5.55-.19-1.91-.17-3.84.1-5.74.21-1.43.54-2.83,1-4.2.22-.68.48-1.36.75-2.02.14-.33.28-.67.43-.99l.42-.91-.37.94c-.13.33-.25.67-.37,1.01-.24.68-.45,1.36-.63,2.05-.38,1.38-.63,2.78-.76,4.19-.06.88-.1,1.75-.06,2.62.05.81.25,2.79.7,4.59.21.89.48,1.77.7,2.4.23.62.42,1.07.53,1.19.15.16.07-.28-.23-1.85-.15-.81-.35-1.9-.48-3.35-.13-1.45-.18-3.26.12-5.45.24-1.67.74-3.58,1.59-5.68.86-2.12,1.95-4.16,3.3-6.42,1.36-2.25,3.01-4.7,5.14-7.22,2.13-2.51,4.76-5.12,8.11-7.44,2.6-1.79,5.39-3.27,8.31-4.41,2.93-1.12,5.96-1.87,9-2.36-4.74.83-9.26,2.49-13.23,4.79-1.01.54-1.94,1.21-2.87,1.85-.94.62-1.8,1.35-2.64,2.06-1.67,1.44-3.16,3.01-4.5,4.62-2.68,3.23-4.72,6.68-6.35,10.09-1.62,3.37-2.93,7.01-3.04,10.49-.05,1.18.03,2.23.18,3.24.02-1.07.12-2.13.32-3.18.65-3.32,2.23-6.28,4.01-9.05-1.22,2.39-2.25,4.83-2.77,7.38-.09.55-.18,1.12-.24,1.8-.22,2.58.15,5.57,1.13,8.7.4,1.28.88,2.58,1.44,3.91"/>
      <path class="cls-1" d="M91.37,306.91c-.15-1.01-.23-2.06-.18-3.24.11-3.48,1.41-7.11,3.04-10.49,1.63-3.41,3.67-6.86,6.35-10.09,1.34-1.61,2.82-3.18,4.5-4.62.84-.71,1.7-1.44,2.64-2.06.93-.64,1.86-1.31,2.87-1.85,3.98-2.29,8.5-3.95,13.23-4.79-4.74.83-9.26,2.49-13.23,4.79-1.01.54-1.94,1.21-2.87,1.85-.94.62-1.8,1.35-2.64,2.06-1.67,1.44-3.16,3.01-4.5,4.62-2.68,3.23-4.72,6.68-6.35,10.09-1.62,3.37-2.93,7.01-3.04,10.49-.05,1.18.03,2.23.18,3.24"/>
      <path class="cls-1" d="M88.98,313.96c-.11-.12-.29-.56-.53-1.19-.22-.63-.49-1.51-.7-2.4-.45-1.8-.64-3.78-.7-4.59-.03-.87,0-1.75.06-2.62.13-1.41.38-2.81.76-4.19.18-.69.4-1.37.63-2.05.12-.34.24-.68.37-1.01l.37-.94-.37.94c-.13.33-.25.67-.37,1.01-.24.68-.45,1.36-.63,2.05-.38,1.38-.63,2.78-.76,4.19-.06.88-.1,1.75-.06,2.62.05.81.25,2.79.7,4.59.21.89.48,1.77.7,2.4.23.62.42,1.07.53,1.19"/>
      <path class="cls-16" d="M116.71,278.16c-1.78.73-3.53,1.52-5.15,2.54-1.66.96-3.18,2.12-4.63,3.39-2.89,2.55-5.38,5.63-7.51,8.97-1.13,1.78-2.21,3.66-3.07,5.5-.84,1.8-1.46,3.61-1.73,5.54-.31,2.22-.08,4.48.44,6.65.55,2.25,1.39,4.52,2.45,6.75,2.05,4.47,4.68,8.68,7.76,12.54,6.17,7.73,14.17,14.03,23.1,18.42,3.24,1.73,6.66,3.11,10.16,4.24,3.5,1.13,7.11,1.98,10.76,2.5,2.44.38,4.89.6,7.35.72,3.87,1.41,7.68,2.54,11.23,3.53,3.55.93,6.84,1.8,9.68,2.6-9.71,2.35-19.92,3.25-30.19,2.33-6.8-1.11-13.41-3.13-19.63-5.95-6.22-2.8-11.95-6.48-17.19-10.73-5.18-4.32-9.85-9.26-13.74-14.82-.96-1.4-1.92-2.8-2.77-4.28-.91-1.44-1.68-2.96-2.47-4.48-.77-1.53-1.46-3.09-2.15-4.67-.66-1.6-1.27-3.29-1.77-5.06.97,2.48,2.14,4.82,3.48,7.03.33.56.66,1.12.99,1.69.36.55.72,1.09,1.09,1.64.36.55.73,1.09,1.1,1.64l1.18,1.59c3.17,4.23,6.87,8.08,10.77,11.33,7.81,6.56,16.42,10.58,22.82,12.35-7.21-3.53-14.43-8.72-20.37-14.94-2.97-3.11-5.65-6.43-7.89-9.88-2.25-3.44-4.06-6.98-5.55-10.37h0c-.56-1.33-1.04-2.63-1.44-3.91-.98-3.13-1.35-6.12-1.13-8.7.06-.68.15-1.25.24-1.8.51-2.54,1.55-4.98,2.77-7.38,2.32-3.65,5.03-7.23,8.34-10.35,1.64-1.56,3.44-3,5.39-4.24,1.01-.57,1.96-1.23,3.03-1.71.53-.25,1.04-.53,1.58-.77l1.64-.66c8.87-3.4,19.26-3.39,29.23-1.19,1.66.36,3.34.78,4.99,1.26,5.31,1.53,10.54,3.6,15.73,5.81,5.34,2.28,10.65,4.74,16.04,7.02l2.53,1.97c-11.52-4.35-22.32-9.86-33.62-13.25-5.6-1.65-11.38-2.76-17.14-2.93-5.75-.23-11.49.55-16.72,2.51"/>
      <path class="cls-13" d="M116.71,278.16c5.23-1.96,10.97-2.74,16.72-2.51,5.76.17,11.53,1.28,17.14,2.93,11.3,3.39,22.1,8.9,33.62,13.25-11.52-4.35-22.32-9.86-33.62-13.25-5.6-1.65-11.38-2.76-17.14-2.93-5.75-.23-11.49.55-16.72,2.51"/>
      <path class="cls-13" d="M99.42,293.06c-1.13,1.78-2.21,3.66-3.07,5.5-.84,1.8-1.46,3.61-1.73,5.54-.31,2.22-.08,4.48.44,6.65.55,2.25,1.39,4.52,2.45,6.75,2.05,4.47,4.68,8.68,7.76,12.54,6.17,7.73,14.17,14.03,23.1,18.42-8.94-4.38-16.93-10.69-23.1-18.42-3.09-3.86-5.72-8.07-7.76-12.54-1.06-2.22-1.9-4.49-2.45-6.75-.52-2.17-.74-4.43-.44-6.65.27-1.93.89-3.74,1.73-5.54.86-1.84,1.94-3.72,3.07-5.5"/>
      <path class="cls-13" d="M165.61,282.84c-5.18-2.21-10.42-4.28-15.73-5.81-1.65-.49-3.32-.9-4.99-1.26-9.97-2.2-20.36-2.21-29.23,1.19,8.87-3.4,19.26-3.39,29.23-1.19,1.66.37,3.33.78,4.99,1.26,5.31,1.53,10.54,3.6,15.73,5.81"/>
      <path class="cls-17" d="M95.26,316.46h0c-.56-1.33-1.05-2.62-1.44-3.9.4,1.28.88,2.58,1.44,3.9"/>
      <path class="cls-17" d="M129.08,351.66c-6.4-1.78-15.01-5.79-22.82-12.35-3.91-3.26-7.6-7.11-10.77-11.33l-1.18-1.59c-.37-.55-.73-1.1-1.1-1.64-.36-.55-.73-1.1-1.09-1.64-.33-.57-.66-1.13-.99-1.69-1.34-2.21-2.51-4.55-3.48-7.03.97,2.48,2.14,4.82,3.48,7.03.33.56.66,1.12.99,1.69.36.55.72,1.09,1.09,1.64.36.55.73,1.09,1.1,1.64l1.18,1.59c3.17,4.23,6.87,8.08,10.77,11.33,7.81,6.56,16.42,10.58,22.82,12.35"/>
      <path class="cls-2" d="M128.38,348.45c8.74,4.36,18.44,6.8,28.27,7.46-2.46-.12-4.91-.34-7.35-.72-3.65-.52-7.26-1.37-10.76-2.5-3.5-1.13-6.92-2.51-10.16-4.24"/>
      <path class="cls-4" d="M128.38,348.45c8.74,4.36,18.44,6.8,28.27,7.46-9.83-.66-19.52-3.1-28.27-7.46"/>
    </g>
    <path class="cls-9" d="M92.86,52.78c-.11,0-.2,1.26-.28,3.48-.07,2.23-.12,5.42-.16,9.29-.07,7.73-.08,18.17-.07,28.97.1,21.6.21,44.65.24,50.49-.1.47-.04,1.13-.04,1.13v1.23c-.12,1.29-.38,2.3,0,2.59v30.02c-.78,2.45-2.36,5.55-2.66,6.03-.36.63-2.38,3.64-1.75,4.77.64,1.16,3.15.04,3.15.04,0,0-.36,1.01-.51,2.81-.08.75.3,1.48.75,2.08-2.58,3.73-2.1,7.47-.97,10.27-.76,1.79-1.68,3.93-2.71,7.85-.47,1.81-.79,3.33-1,4.64-.02.03-.05.06-.08.08-2.45,2.59-4.85,7.29-2,9.88,1.69,1.55,4.46.8,6.41-.05.54.53.94,1.1,1.02,1.74.11.85-.42,1.61-1.24,2.22-.07.05-1.38.85-1.44.79,3.33,3.51,6.54,1.48,6.54,1.48,1.06,1.77-.55,5.24-.55,5.24-3.7-2.29-5.08.79-6.73,2.22-1.65,1.44-3.85.84-3.85.84,2.25,3.19,5.9,2.1,5.9,2.1-1.4,4.15,3.94,6.92,6.21,9.4,2.27,2.47.85,4.53.85,4.53,0,0,3.36-1.36,1.65-5.02-1.72-3.68-4.46-5.27-1.45-14.23,2.26-6.74-2.06-10.65-2.79-11.25,4.73,2.66,7.47-.52,7.47-4.62,0,0,0-1.81-3.03-5.08-3.2-3.49-4.65-6.85-5.28-9.5,3.87-6.32,1.68-10.79-.2-13.05,1.27-1.65.92-4.83.92-4.83.49.13,4.92.99,2.14-3.05-1.32-1.88-2.34-4.26-3.07-6.27v-35.92c-.02-2.74-.19-26.07-.35-48.73-.11-11.33-.26-22.48-.43-30.81-.09-4.16-.18-7.62-.28-10.03-.1-2.41-.21-3.79-.33-3.79Z"/>
    <path class="cls-9" d="M118.4,133.06c-.91,0-.34,22.7-.26,25.99-.1.13-.04.32-.04.32v.35c-.12.36-.38.65,0,.73v9.2c-.78,2.45-2.36,5.55-2.66,6.03-.36.63-2.38,3.64-1.75,4.77.64,1.16,3.15.04,3.15.04,0,0-.36,1.01-.51,2.81-.08.75.3,1.48.75,2.08-2.58,3.73-2.1,7.47-.97,10.27-.76,1.79-1.68,3.93-2.71,7.85-.47,1.81-.79,3.33-1,4.64l-.08.08c-2.45,2.59-4.85,7.29-2,9.88,1.69,1.55,4.46.8,6.41-.05.54.53.94,1.1,1.02,1.74.11.85-.42,1.61-1.24,2.22-.07.05-1.38.85-1.44.79,3.33,3.51,6.54,1.48,6.54,1.48,1.06,1.77-.55,5.24-.55,5.24-3.7-2.29-5.08.79-6.73,2.22-1.65,1.44-3.85.84-3.85.84,2.25,3.19,5.9,2.1,5.9,2.1-1.4,4.15,3.94,6.92,6.21,9.4,2.27,2.47.85,4.53.85,4.53,0,0,3.36-1.36,1.65-5.02-1.72-3.68-4.46-5.27-1.45-14.23,2.26-6.74-2.06-10.65-2.79-11.25,4.73,2.66,7.47-.52,7.47-4.62,0,0,0-1.81-3.03-5.08-3.2-3.49-4.65-6.85-5.28-9.5,3.87-6.32,1.68-10.79-.2-13.05,1.27-1.65.92-4.83.92-4.83.49.13,4.92.99,2.14-3.05-1.32-1.88-2.34-4.26-3.07-6.27v-12.35c-.02-1.54-.45-26.3-1.4-26.3Z"/>
    <path class="cls-9" d="M263.68,338.33c-17.18,6.63-34.91,10.14-52.31,11.6-17.47,1.5-34.53.94-51.06-.37-8.26-.68-16.4-1.53-24.41-2.48l-11.93-1.45c-3.9-.48-7.72-.96-11.41-1.35-3.73-.42-7.3-.71-10.85-.96-3.48-.18-6.94-.35-10.2-.28-6.6.03-12.59.79-17.88,2.2-3.29.26-6.46.75-9.63,1.57,1.25-.94,2.46-2.01,3.87-2.84-.43-.34-.8-.37-.93.01-.2-.32-1.71-2.68-2.16-4.43-.44-1.76-.57-3.04-.9-3.43.4,0,1.07.59,1.34,1.41-.38-1.26-.49-2.32-.37-3.04.11-.72.11-2.3-.57-3.07.47-.39,2.69,2.37,3.74,6.98-.09-1.03.19-1.47.31-1.69.02.05.04.1.06.16-.15-2.96-.03-5.06-.57-5.98,1.07.3,2.52,2.24,2.82,4.29-.34-3.07-.01-5.5.75-6.96.72-1.49,1.79-4.88.48-7.28,1.12-.21,3.63,4.02,4.69,10.68.27-.47.57-.85.9-1.04.76-.46,1.98-2.03,1.53-4.04.59.27,1.31,2.68,1.46,5.96.54-.84,1.14-1.47,1.68-2.34,2.2-3.62,2.23-4.91,2.2-8.44,0-.85.72-1.13,1.02-.58.47.82.82,1.71,1.07,2.66.87.3,1.86,1.85,1.82,3.57.16-2.66.77-4.82,1.61-6.09.83-1.28,2.06-4.29,1.17-6.25.64-.17,1.71,1.41,2.4,4.23.7,2.81,1.02,6.91.42,11.7.62-2.05,1.61-2.7,2.04-3.04,0,.1,0,.23,0,.35,1.99-5.82,3.84-9.73,3.34-11.86,2.1,1.41,3.89,6.05,3.03,10.19,1.53-6.17,4.01-10.62,6.63-12.93,2.6-2.29,6.98-8.34,5.8-13.77,1.16.13,2.4,2.63,3.12,6.8.73,4.17.89,10.03.07,16.84.89-.76,1.78-1.26,2.61-1.47,1.95-.5,5.44-2.92,5.53-7.12,1.08.85,1.39,6,0,12.53,1.66-1.33,3.31-2.25,4.89-3.78,6.42-6.23,6.82-8.81,8.16-15.88.32-1.69,1.82-1.96,2.24-.78,2.06,5.88,1.86,12.89-1.05,20.65-1.39,3.69-2.98,6.74-4.65,9.2.57.05,1.14.1,1.72.15l.08-.08c1.13-.96,2.27-1.56,3.35-2.61,4.03-3.94,4.28-5.57,5.08-10.02.19-1.06,1.15-1.24,1.42-.5,1.36,3.69,1.27,8.1-.54,12.99-.13.36-.27.69-.41,1.03,1.94.17,3.9.35,5.9.53.05-.3.12-.6.2-.87.71-2.31,1.45-3.88,1.27-4.54.56.25,1.11,1.35.93,2.48.34-1.7.93-3.01,1.56-3.77.64-.77,1.61-2.62,1.18-3.94.8-.14,2.25,4.31.94,10.44.54-1.29,1.24-1.67,1.56-1.87,0,.07,0,.15-.01.23,1.6-3.66,2.84-6.15,2.58-7.54,1.27.94,2.41,3.97,1.82,6.64,1.09-3.97,2.67-6.85,4.28-8.38,1.64-1.52,4.13-5.55,3.29-9.03,1.36.08,3.24,6.28,2.77,15.15.55-.53,1.1-.88,1.64-1.07,1.25-.41,3.38-2.17,3.19-4.88.73.49,1.25,3.79.74,8.08,1.01-.96,2.03-1.66,2.97-2.74,3.77-4.42,3.82-6.14,4.18-10.77.09-1.11,1.02-1.39,1.37-.66,1.74,3.64,2.17,8.14.84,13.35-.61,2.38-1.39,4.39-2.28,6.05.39.02.78.03,1.17.05.66-.66,1.33-1.12,1.94-1.86,2.36-2.85,2.38-3.91,2.55-6.83.04-.7.65-.88.88-.43,1.18,2.26,1.49,5.08.7,8.38-.08.32-.16.61-.25.91,15.64.32,29.77-.24,43.4-1.91,13.62-1.69,26.82-4.46,40.27-9.37-4.59,3.16-9.32,6.02-14.18,8.62ZM85.89,336.26c-.07-.43-.13-.88-.18-1.33-.25.85-.52,1.6-.8,2.27l.64-.15c.09-.27.2-.55.34-.79Z"/>
    <path class="cls-11" d="M56.51,345.74c-4.13-6.51-7.59-13.63-10.21-21.19-.63-1.89-1.2-3.82-1.81-5.75-.5-1.95-1-3.91-1.48-5.9l-1.16-6.02-1-6.01c-2.63-16.03-5.09-32.05-7.38-48.03-2.29-15.98-4.41-31.92-6.38-47.79-.48-3.97-.96-7.93-1.45-11.89l-.7-5.93-.17-1.48c-.06-.5-.09-1.13-.14-1.68l-.25-3.45c-.57-9.22-.13-18.59,1.34-27.85,2.9-18.55,10.06-36.56,20.59-52.37,10.52-15.83,24.42-29.48,40.57-39.79,16.12-10.34,34.51-17.28,53.41-20.22,18.86-2.96,38.21-2.07,56.56,2.5,18.34,4.55,35.51,12.73,50.34,23.54,14.86,10.79,27.41,24.23,37.03,39.19,9.63,14.96,16.44,31.4,20.05,48.15,1.81,8.37,2.87,16.79,3.24,25.11.05,2.08.09,4.15.14,6.22,0,1.59-.01,3.18-.02,4.75-.02,3.09-.05,6.15-.07,9.2-.23,24.36-.76,47.35-1.51,68.75-.37,10.7-.8,21-1.28,30.87-.12,2.47-.24,4.91-.37,7.32-.09,1.44-.17,2.87-.25,4.29-.11,1.55-.22,3.08-.32,4.61-.65,6.1-1.52,12.03-2.85,17.71-3.02,13.81-8.1,26.1-14.04,36.75-6.01,10.63-13.01,19.58-20.25,27.04-7.25,7.46-14.81,13.39-22.19,18.09-7.38,4.72-14.62,8.16-21.4,10.7-6.8,2.52-13.12,4.24-18.94,5.19-2.87.57-5.68.8-8.27,1.08-2.62.21-5.1.27-7.41.32-9.32-.01-16.26-1.59-21.18-3.27-4.93-1.71-7.9-3.72-9.44-5.35-1.53-1.64-1.65-3.02-.76-3.98.9-.97,2.8-1.49,5.48-1.51,1.34-.06,2.88,0,4.61.22,1.73.2,3.63.42,5.72.86,8.35,1.55,14.29,1.35,18.09.94,3.79-.55,5.49-1.36,5.9-2.18.4-.86-.46-1.67-1.72-2.48-1.27-.8-2.91-1.53-4.14-2.05-1.82-1.22-3.2-2.57-4.19-3.96-.99-1.37-1.6-2.77-1.91-4.17-.61-2.81,0-5.57,1.31-8.44,2.68-5.61,8.1-11.39,13.79-17.71,5.67-6.38,11.71-13.29,16.49-20.31,4.88-6.93,8.64-13.76,11.23-18.78,5.27-9.96,8.93-19.08,12.38-23.58,1.66-2.23,3.42-3.23,5.12-2.31.85.46,1.69,1.41,2.49,2.96.36.77.7,1.68,1.03,2.75.33,1.08.66,2.31.84,3.71.07-.5.13-1,.19-1.49.04-.5.08-.99.12-1.48.09-.97.19-1.93.28-2.87.13-1.88.26-3.7.38-5.45.04-.88.07-1.73.11-2.58.03-.42.05-.84.08-1.25.03-.4.06-.81.07-1.33.08-1.95.18-3.81.31-5.58.51-7.1,1.43-12.84,2.57-17.14,2.29-8.6,5.5-11.46,8.28-8.01,5.59,6.91,5.63,29.09,13.09,20.72,13.45-8.57,19.76-54.86,22.56-104.2.08-1.54.17-3.09.25-4.63l.12-2.33.05-2.9c.12-3.87-.07-7.74-.27-11.62-.58-7.74-1.83-15.43-3.68-22.87-1.82-7.45-4.36-14.61-7.33-21.35-1.43-3.4-3.12-6.62-4.76-9.79-.88-1.55-1.76-3.1-2.62-4.62-.86-1.53-1.84-2.97-2.75-4.43-.46-.72-.93-1.44-1.39-2.16-.47-.71-.97-1.39-1.45-2.08-.98-1.37-1.93-2.74-2.91-4.06-2.03-2.58-3.98-5.14-6.06-7.45-4.04-4.74-8.28-8.81-12.26-12.47-8.1-7.17-15.62-12.22-21.24-15.52-11.26-6.63-21.59-10.45-29.39-12.68-3.89-1.17-7.21-1.78-9.74-2.3-2.55-.44-4.37-.61-5.34-.64-1.95-.03-.56.6,4.72,2.09,2.61.86,6.22,1.87,10.75,3.53,2.3.75,4.76,1.82,7.52,2.89,1.38.54,2.78,1.22,4.26,1.87,1.48.66,3.03,1.35,4.6,2.16,1.36.67,2.72,1.34,4.07,2.01,1.32.73,2.63,1.45,3.94,2.17l1.95,1.09,1.89,1.17c1.25.78,2.5,1.56,3.74,2.34,4.85,3.28,9.51,6.67,13.74,10.39,4.31,3.64,8.2,7.57,11.89,11.52,3.59,4.05,6.97,8.14,9.94,12.4,12.04,16.94,19,35.12,22.02,51.97,1.53,8.44,2.11,16.56,2.02,24.19-.03.95-.05,1.9-.07,2.84l-.04,1.4c-.02.46-.03.96-.06,1.31-.11,1.53-.21,3.04-.31,4.52-.23,2.97-.46,5.85-.67,8.64-.93,11.17-2.01,20.94-3.17,29.33-4.64,33.54-10.59,44.96-14.03,35.86-4.39-11.56-5.85-27.3-5.84-43.64,0-8.17.39-16.49.96-24.5.27-4.02.65-7.93.95-11.76.11-1.93.32-3.84.36-5.71.04-1.87.13-3.71.13-5.51.04-7.23-.8-13.16-1.59-17.77-.49-2.28-.85-4.27-1.33-5.89-.46-1.62-.87-2.93-1.22-3.92-.72-1.96-1.23-2.62-1.35-2.08-.07.27-.05.85.05,1.73.07.89.19,2.08.39,3.56.78,5.88,1.19,13.98.06,18.12-.46,2.07-1.29,3.16-2.29,2.6-.49-.28-1.1-.97-1.81-2.14-.35-.58-.73-1.29-1.12-2.12-.38-.84-.84-1.79-1.36-2.87-2.78-6.36-5.42-13.26-8.74-20.92-.2-.48-.41-.97-.61-1.45-.22-.48-.45-.96-.68-1.45-.44-.98-.89-1.98-1.35-2.98-.49-.99-.99-2-1.49-3.02-.25-.52-.5-1.03-.75-1.56-.27-.51-.55-1.03-.82-1.55-.55-1.04-1.11-2.1-1.67-3.18-.61-1.05-1.23-2.12-1.85-3.21-.6-1.11-1.3-2.17-1.99-3.27-.7-1.09-1.35-2.24-2.13-3.32-2.93-4.48-6.44-8.97-10.48-13.49-4.06-4.51-8.73-9-14.16-13.24-10.81-8.46-24.8-16.01-41.96-19.89-16.92-3.44-35.31-2.9-52.64,2.28-8.67,2.55-17.07,6.16-24.92,10.71-7.83,4.59-15.1,10.1-21.62,16.34-13.09,12.43-22.82,27.94-28.63,44.17-2.91,8.12-4.81,16.45-5.74,24.69-.18,2.07-.43,4.11-.53,6.16-.07,2.05-.2,4.08-.19,6.1.04,2.01.04,4.06.12,5.98.09,1.9.18,3.79.27,5.67,1.49,30.07,3.72,57.08,6.49,78.82,1.38,10.87,2.9,20.43,4.52,28.4.41,1.99.82,3.89,1.24,5.67.21.89.42,1.77.64,2.59.24.78.47,1.53.7,2.26.87,2.9,2.02,5.32,3.06,7.26-.56-2.25-1.18-4.52-1.56-6.83-.21-1.18-.45-2.26-.63-3.54l-.54-3.82c-.71-5.09-1.39-10.19-2.02-15.29-1.27-10.2-2.38-20.39-3.36-30.56-1.95-20.33-3.33-40.54-4.27-60.38-.11-2.48-.22-4.95-.33-7.42-.05-1.23-.1-2.47-.15-3.7-.01-1.24-.03-2.49-.04-3.73l-.02-1.86c0-.62.05-1.24.07-1.86.06-1.24.11-2.48.16-3.71.07-1.24.23-2.46.34-3.69.13-1.23.21-2.46.43-3.67,1.39-9.75,3.99-19.26,7.88-28.04,3.84-8.8,8.73-16.98,14.51-24.2,5.75-7.24,12.22-13.64,19.23-18.96,14.01-10.75,29.02-16.82,42.29-19.45,6.65-1.34,12.87-1.86,18.5-1.9,2.82.1,5.48.09,8,.4,1.25.13,2.47.24,3.64.39,1.17.2,2.3.39,3.39.58,8.73,1.6,14.66,4.32,17.84,6.51,3.16,2.35,3.62,4.16,1.46,5.38-2.15,1.19-5.47,1.98-9.75,2.61-4.19.54-9.42,1.22-15.61,2.02-6.08.84-12.97,2.01-20.5,3.95-7.5,2.05-15.68,4.81-24.13,9.03.72,1.38,1.36,2.93.97,5.05-.19,1.07-.63,2.28-1.44,3.64-.42.66-.87,1.47-1.45,2.26-.57.82-1.29,1.63-2.03,2.62-1.54,1.91-3.52,4.08-5.86,6.8-2.38,2.68-5.12,5.9-8.14,9.89-3.01,3.99-6.33,8.76-9.53,14.69-3.13,5.95-6.26,13.02-8.42,21.62-1.1,4.32-1.91,8.77-2.26,13.31l-.05.42-.03.56-.06,1.13-.12,2.26-.23,4.52c-.14,3.01-.28,6.03-.42,9.03-.52,12.04-.89,24.04-1.11,35.92s-.3,23.66-.23,35.25c.03,5.79.1,11.54.21,17.23.06,2.84.12,5.68.19,8.49.04,1.41.08,2.81.11,4.21l.06,2.1.03,1.05.06.8c.19,4.27.84,8.43,1.64,12.46.93,4.01,2.09,7.89,3.54,11.57.35.93.79,1.82,1.17,2.72.38.9.77,1.79,1.24,2.65.44.86.87,1.72,1.31,2.58.48.83.96,1.65,1.44,2.48.45.83.97,1.62,1.5,2.4.53.78,1.01,1.57,1.55,2.32,1.13,1.48,2.16,2.98,3.37,4.34,2.26,2.81,4.82,5.27,7.32,7.58.66.55,1.31,1.09,1.95,1.63l.96.8,1.01.74c.66.49,1.32.98,1.98,1.46.67.47,1.36.89,2.03,1.33,5.37,3.47,10.87,5.9,16.13,7.32,11.69,7.05,25.08,10.66,38.7,10.73-3.27,1.31-6.79,2.64-10.52,3.47-1.88.52-3.78.78-5.77,1.16-.98.14-1.98.24-2.99.36l-1.53.18-1.54.08c-8.27.54-17.32-.36-26.56-3.11-4.64-1.33-9.29-3.2-13.9-5.51-4.61-2.32-9.22-5.07-13.6-8.4-8.78-6.61-17.06-15.17-23.62-25.68Z"/>
  </g>
  <g id="NERO">
    <g>
      <path class="cls-14" d="M198.25,105.9c1.85,3.53,2.22,6.13,2.66,9.3.55,3.9,1.16,8.32,4.37,15.3,5.26,11.43,4.37,21.67,4.17,23.43-.52,1.36-2.7,6.92-5.07,10.97-3.38,5.76-4.06,12.04-2.02,18.65,1.24,4.03,4.58,10.59,7.8,16.93,1.83,3.6,3.55,6.99,4.75,9.64,3.23,7.14,6.28,13.88,6.39,27.39.08,9.91,2.46,19.34,7.27,28.84,3.37,6.65,7.44,21.76,8.78,26.73,1.03,3.83,1.53,7.8,1.49,11.78-.12,10.99-3.3,24.41-3.62,25.73-.51,1.54-5.18,15.66-5.84,17.83-.17.55-.86,1.8-2.06,3.6-1.5-.78-3.15-1.19-4.83-1.19-2.05,0-3.99.62-5.58,1.77-2.39.13-4.54.73-6.54,1.82-1.34.73-2.38,1.74-3.07,2.94-7.28.31-14.38.44-16.17.44-1.22,0-2.79-.22-4.3-.43-1.59-.22-3.24-.45-4.77-.49-2.19-.77-4.46-1.15-6.92-1.15-4.63,0-9.15,1.37-13.52,2.7-1.2.36-2.44.74-3.65,1.08-1.21.34-2.62.83-4.1,1.35-3.43,1.2-7.7,2.69-10.88,2.69-.99,0-1.79-.15-2.37-.44-1.18-.59-2.42-.89-3.67-.89-2.31,0-4.5,1.06-6.06,2.79-18.66-8.15-30.46-14.42-36.22-32.37-4.6-14.34-4.34-32.25-.91-36.31.97-1.15,1.87-2.82,3.01-4.94,2.35-4.35,5.89-10.93,9.9-10.93.43,0,.89.07,1.36.22,4.78,1.5,3.28,8.26,2.88,9.76-1.6,2.86-10.75,20.72-.65,39.34,9.02,16.64,20.41,19.99,24.23,20.66.59.45,1.26.68,1.98.68.99,0,1.91-.46,2.51-1.26.99-1.31,1.64-2.18-2.94-18.08-5.48-19.03-5.54-28.56-5.54-28.65v-.28c-.03-.19-1.69-19.62,2.8-31.87,3.44-9.38,4.38-17.38,4.89-21.67.14-1.15.29-2.45.4-2.88.6-1.35.85-4.1,1.52-16.64.28-5.19.57-10.55.9-14.08.71-7.44,4.59-11.56,4.61-11.58l.15-.15.13-.17c.2-.27,4.95-6.73,8.6-13.82,3.05-5.92,3.4-9.11,3-12.91-.35-3.24-2.03-4.49-3.66-5.69-.93-.69-2.1-1.55-3.62-3.12-3.05-3.14-5.59-7.29-6.59-9.03,1.03-8.53-.65-22.12-.72-22.68-.73-6.62-2.68-17.21-3.89-23.5,2.68,1.2,6.2,3.17,9.61,6.29,7.61,6.95,11.65,9.31,13.38,10.32l.14.08c.64.37,1.4.56,2.27.56,2.65,0,7.09-1.95,8.45-2.58,4.01-1.71,8.25-1.89,9.89-1.89.59,0,.94.02.94.02h0l1.98.14.91-1.76c6.31-12.27,10-16.74,11.72-18.34M199.08,102.07c-1.33,0-5.53,1.97-15.21,20.79,0,0-.42-.03-1.15-.03-2.08,0-6.67.25-11.11,2.15,0,0-5.01,2.32-7.23,2.32-.32,0-.57-.05-.76-.15-1.46-.86-5.4-3.08-13.01-10.03s-15.59-8.64-15.59-8.64c0,0,3.79,18.73,4.87,28.4,0,0,1.86,14.84.6,22.94,0,0,3.26,6.1,7.55,10.53,4.29,4.43,6.11,3.86,6.45,7.05s.09,5.83-2.68,11.22c-3.57,6.95-8.34,13.4-8.34,13.4,0,0-4.63,4.69-5.46,13.4-.83,8.71-1.36,28.12-2.18,29.79-.83,1.67-.58,11.68-5.36,24.72-4.78,13.05-2.98,33.16-2.98,33.16,0,0-.05,9.68,5.66,29.49,3.84,13.32,3.77,15.5,3.31,15.5-.22,0-.54-.52-.54-.52,0,0-12.94-.64-23.03-19.26s.79-36.74.79-36.74c0,0,3.48-11.22-4.77-13.8-.78-.25-1.54-.36-2.26-.36-7.9,0-12.33,13.53-15.21,16.94-4.48,5.31-4.37,24.47.35,39.16,6.39,19.92,19.77,26.35,39.36,34.85.29.13.59.23.88.35.76-1.93,2.64-3.54,4.89-3.54.75,0,1.53.18,2.33.58,1.07.53,2.34.75,3.71.75,5.14,0,11.83-3.05,15.78-4.15,5.58-1.56,10.98-3.67,16.36-3.67,2.12,0,4.25.33,6.38,1.15h.17c2.86,0,6.59.92,9.45.92,2.04,0,10.27-.16,18.27-.53.2-1.24.95-2.41,2.41-3.21,1.92-1.05,3.93-1.48,6.11-1.48h.1c1.21-1.16,2.81-1.74,4.47-1.74,1.81,0,3.69.69,5.21,2.09.11.1.2.22.3.33,1.67-2.26,3.76-5.32,4.25-6.95.68-2.24,5.86-17.87,5.86-17.87,0,0,3.6-14.51,3.74-26.53.05-4.25-.49-8.49-1.59-12.6-2.4-8.9-5.92-21.23-9-27.31s-6.85-15.27-6.95-27.5c-.11-13.98-3.34-21.26-6.65-28.6-3.32-7.33-10.56-20.21-12.41-26.21s-1.14-11.35,1.74-16.25,5.41-11.75,5.41-11.75c0,0,1.87-11.85-4.37-25.42-6.24-13.57-2.08-16.94-8.42-27.03,0,0-.15-.14-.51-.14h0v.03Z"/>
      <path class="cls-9" d="M137.38,111.2s3.7,16.16,4.74,25.77c0,0,1.23,13.17,0,21.23,0,0,2.46,5.31,6.63,9.71s6.68,6.11,7.01,9.29.99,9.14-3.03,13.55c-4.03,4.41-10.42,20.09-10.42,20.09,0,0-.76,3.08-1.56,11.75-.81,8.67-2.04,27.62-2.84,29.28s-1.8,9.85-6.44,22.84c-4.64,12.98-1.99,31.98-1.99,31.98,0,0,1.14,10.42,6.68,30.13s-2.94,12.41-2.94,12.41c0,0-12.84-3.08-22.65-21.6s1.04-34.11,1.04-34.11c0,0,3.93-9.95-3.03-14.55s-15.49,12.89-16.87,17.53-3.27,20.37.57,32.6c3.84,12.22,16.54,31.17,36.24,38.38,19.71,7.2,43.64-3.55,46.05-5.31,2.42-1.75,8.24.19,12.27.19s40.18-3.6,41.6-5.4,2.27-3.93,2.94-6.16,5.4-17.91,5.4-17.91c0,0,3.08-12.84,3.22-27.05,0,0-3.6-27.48-8.05-32.5s-9.14-18.71-10.94-32.5c-1.8-13.79-2.46-23.59-5.69-30.89-3.22-7.3-10.71-19.85-12.51-25.82s-3.36-10.28-.57-15.16c2.8-4.88,7.11-12.41,7.11-12.41,0,0,1.71-11.61-4.36-25.11s-.05-17.34-6.21-27.38c0,0-1.75-2.18-13.64,21.51,0,0-11.42-.38-17.25,2.18,0,0-3.7,1.04-5.12.19s-6.25-2.94-13.64-9.85-11.75-6.87-11.75-6.87v-.03Z"/>
      <path class="cls-14" d="M136.74,351.15c3.78.76,7.61,1.13,11.46,1.47,2.56.22,5.19.24,7.69-.41,2.29-.6,4.35-1.84,6.24-3.24,6.76-5.03,11.66-12.33,13.91-20.45,1.27-4.59,1.68-9.42,1.13-14.15-.22-1.89-3.23-1.92-3,0,.91,7.69-.82,15.48-4.76,22.13-1.98,3.34-4.5,6.33-7.47,8.83-1.6,1.34-3.37,2.65-5.3,3.47-2.15.91-4.51,1.04-6.82.93-4.09-.19-8.26-.66-12.27-1.47-1.89-.38-2.69,2.51-.8,2.89h-.01Z"/>
    </g>
    <path class="cls-23" d="M174,313.65s6.1,9.94-1.63,22.99c-8.66,14.63-18.84,15.28-19.95,15.63s-13.01,2.32-25.01-5.26c-12-7.58-20.06-22.2-21.05-30.66-.86-7.33-.75-13.63,2.29-18.71,3.47-5.81,3.65-9.45,3.65-9.45,0,0-.16-7.41-4.63-9.29s-9.25,6.54-9.25,6.54c0,0-6.2,8.18-7.01,16.78-.81,8.6-2.15,14.38,1.51,26.02,3.66,11.65,12.11,26.25,22.48,31.89,10.38,5.65,16.89,9.61,31.64,9.05s21.36-2.9,29.81-11.9c8.44-9,10.38-14.75,13.53-22.74,0,0,.92-2.49,1.63-6.1,0,0,.41,3.41-2.65,12.31s-6.35,15.05-14.8,21.41c0,0,.44-1.41,10.51-.85l42.6-5.42s6-16.26,8.69-26.33c0,0,5.19-16.18,1.12-32.91,0,0-1.53-19.13-11.39-32.71,0,0-6-12.41-6.31-23.04l-1.22-15.92s-.51-11.24-6.82-21.36l-7.94-15.21s-3.56-6.87-3.66-13.94c0,0-1.02-3.41,4.27-10.07l4.58-8.9-.61-12.51s-.92-5.04-3.87-10.99c0,0-2.54-7.22-2.75-14.19,0,0,.1-7.58-2.44-12.72,0,0-.71-2.09-3.05,1.42l-7.43,12.72s-2.75,5.75-3.97,6.41c0,0-9.16.15-12.51.81s-6,2.24-6,2.24c0,0-1.73.46-3.56-.41s-5.8-3.26-5.8-3.26c0,0-10.89-8.9-12-10.28s-7.43-3.56-7.43-3.56c0,0,5.39,21.52,5.29,23.7,0,0,1.12,15.92-.1,22.59,0,0,.61,5.49,12.41,15.92,0,0,2.75,3.51,1.93,8.55,0,0-.31,3.61-2.54,6.92s-7.33,10.78-7.33,10.78c0,0-4.68,7.38-5.7,14.14-1.02,6.77-1.63,21.16-1.63,21.16l-3.36,23.04-6.07,21.5s-3.49,9.32-.61,27.58c2.88,18.26,6.21,26.29,6.21,26.67s3.49,5.53,2.12,12.28l-1.08,3.68s13.19,5.58,25.37-3.95c8.65-6.77,13.48-17.29,11.5-32.12l.02.03Z"/>
  </g>
</svg>